<svg xmlns="http://www.w3.org/2000/svg" width="185" height="42" viewBox="0 0 185 42" fill="none"><path d="M28.2689 40.4272C28.1675 40.4526 28.0916 40.5032 27.9902 40.5285C28.0916 40.5032 28.1929 40.4779 28.2689 40.4272Z" fill="#415E3A"></path><path d="M22.1649 41.7695C22.0129 41.7695 21.8609 41.7949 21.6836 41.7949C21.8609 41.7695 22.0129 41.7695 22.1649 41.7695Z" fill="#415E3A"></path><path d="M24.1903 41.542C24.0383 41.5673 23.8864 41.5927 23.7344 41.618C23.8864 41.5927 24.0383 41.5673 24.1903 41.542Z" fill="#415E3A"></path><path d="M26.1416 41.1367C26.0149 41.162 25.8629 41.2127 25.7109 41.238C25.8629 41.1874 26.0149 41.162 26.1416 41.1367Z" fill="#415E3A"></path><path d="M27.1027 40.8579C26.976 40.8832 26.8747 40.9339 26.748 40.9592C26.8494 40.9339 26.976 40.8832 27.1027 40.8579Z" fill="#415E3A"></path><path d="M39.7687 17.478C39.2874 17.5033 38.8062 17.326 38.4009 17.0474C37.9956 16.7687 37.6663 16.4141 37.337 16.0848C37.3117 16.0595 37.261 16.0088 37.261 15.9582C37.261 15.9075 37.2863 15.8568 37.337 15.8315C37.7929 15.2996 38.3756 14.8943 39.0595 14.7423C39.6674 14.5903 40.3513 14.6663 40.9086 14.9956C40.7819 14.5397 40.63 14.0837 40.4526 13.6531C40.326 13.7291 40.1993 13.7797 40.1233 13.8051C39.6674 13.957 39.1608 13.9064 38.7049 13.7544C38.2489 13.6024 37.8183 13.3491 37.413 13.0958C37.3623 13.0705 37.3117 13.0452 37.3117 12.9945C37.2864 12.9438 37.3117 12.8932 37.337 12.8425C37.641 12.2093 38.0969 11.6773 38.7049 11.348C38.9075 11.2467 39.1101 11.1707 39.3381 11.0947C39.1608 10.7654 38.9835 10.4361 38.7808 10.1322C38.5529 10.5628 38.2742 10.9427 38.0969 11.1201C37.7423 11.4493 37.261 11.6267 36.7797 11.6773C36.2985 11.728 35.8172 11.6773 35.3359 11.6267C35.2852 11.6267 35.2346 11.6013 35.1839 11.576C35.1586 11.5507 35.1586 11.4747 35.1586 11.424C35.1586 10.7401 35.3612 10.0308 35.7665 9.4989C36.1718 8.94163 36.8051 8.53635 37.489 8.46036C37.5396 8.46036 37.5903 8.46036 37.641 8.46036C33.8414 3.34362 27.7368 0 20.8469 0C13.8051 0 7.57379 3.49561 3.79956 8.81499C4.40749 8.89098 5.11674 9.09361 5.37005 9.24559C5.80066 9.47357 6.0793 9.9042 6.28194 10.3348C6.48458 10.7908 6.56057 11.272 6.6619 11.728C6.6619 11.7786 6.68723 11.8293 6.6619 11.88C6.63656 11.9306 6.5859 11.9306 6.53524 11.956C5.87665 12.1586 5.14207 12.1586 4.50881 11.9306C3.87555 11.7027 3.29295 11.2214 3.01432 10.5881C2.96366 10.4615 2.913 10.3348 2.88767 10.1828C2.63436 10.6135 2.38106 11.0441 2.17842 11.5C2.60903 11.576 3.01432 11.8293 3.31828 12.1586C3.67291 12.4879 3.92621 12.9185 4.20485 13.3238C4.23018 13.3745 4.25551 13.4251 4.25551 13.4758C4.25551 13.5265 4.20485 13.5518 4.17952 13.6024C3.64758 14.0331 2.96366 14.3117 2.27974 14.337C1.87445 14.3624 1.46916 14.2864 1.08921 14.109C0.861234 14.793 0.65859 15.4769 0.506608 16.1861C0.810573 16.3128 1.08921 16.4901 1.31718 16.7181C1.67181 17.0474 1.95044 17.4526 2.20375 17.8579C2.22908 17.9086 2.25441 17.9593 2.25441 18.0099C2.25441 18.0606 2.20375 18.0859 2.17842 18.1366C1.64648 18.5672 0.987889 18.8712 0.303968 18.8965C0.227977 18.8965 0.151983 18.8965 0.075992 18.8965C0.0253312 19.4031 0 19.9097 0 20.4163C0.253304 20.3403 0.48128 20.315 0.607932 20.315C1.08921 20.315 1.57049 20.5176 1.95044 20.7963C2.3304 21.0749 2.65969 21.4549 2.98899 21.8095C3.01432 21.8602 3.06498 21.8855 3.06498 21.9361C3.06498 21.9868 3.03965 22.0375 2.98899 22.0628C2.50771 22.5694 1.89978 22.9494 1.24119 23.076C0.861236 23.152 0.455949 23.152 0.101324 23.0507C1.19053 33.5881 10.0815 41.7952 20.8976 41.7952C21.1002 41.7952 21.3282 41.7952 21.5308 41.7698C21.6575 41.1619 21.8095 40.3007 21.7841 40.0474C21.6575 38.4769 21.1762 38.1222 20.1123 36.2225C19.9097 35.8678 19.7324 35.5385 19.5551 35.2093C19.3271 34.7786 19.0991 34.348 18.8965 33.9174C18.7445 33.5881 18.5925 33.2588 18.4659 32.9295C17.8326 32.6256 17.2753 32.2963 16.7434 31.9923C16.7181 31.967 16.6927 31.967 16.6674 31.967C15.7049 32.043 14.641 32.043 13.7797 31.9923C13.7037 31.9923 13.6531 31.9416 13.6531 31.8657C13.6531 31.7897 13.7037 31.739 13.7797 31.739C14.4383 31.663 15.1222 31.587 15.6035 31.511C15.6289 31.511 15.6795 31.4857 15.6795 31.4604C15.7302 31.4097 15.7049 31.3337 15.6542 31.283C14.9196 30.8018 14.2104 30.2698 13.5264 29.7126C13.4758 29.6619 13.4758 29.6113 13.5011 29.5606C13.5264 29.5099 13.6024 29.4846 13.6784 29.5099C16.0341 30.9031 17.402 31.587 18.0859 31.891C17.402 30.0165 17.174 28.6234 17.1234 28.2941C17.1234 28.2434 17.1234 28.2181 17.1234 28.2181C17.0474 27.6608 17.022 27.1542 16.9714 26.7236C16.946 26.1916 16.8447 25.4571 16.5914 24.6465C16.5914 24.6212 16.5661 24.5958 16.5661 24.5958C16.4648 24.2919 16.3381 23.9879 16.1861 23.6839C16.1101 23.5573 15.6795 22.924 15.6289 22.772C15.6542 22.696 16.5661 22.0374 16.8447 21.7841C16.9207 21.7335 16.9714 21.6575 17.022 21.5815L17.2753 21.9868C18.4659 23.5826 19.0231 25.7357 19.5551 28.1167C20.1123 30.7258 20.1883 31.6884 23.0253 35.6146C23.1013 35.7412 23.304 35.6652 23.304 35.5132C23.3546 34.6773 23.38 33.7908 23.228 33.3348C22.9747 32.4989 22.0628 31.0297 21.7841 29.8392C21.4802 28.6487 21.9615 27.4328 22.0121 24.0386C22.0121 22.848 21.6322 21.6828 21.1509 20.6696L20.467 19.4791C20.5936 19.4791 20.6949 19.5044 20.8216 19.5044C21.0749 19.5044 21.3282 19.4791 21.5562 19.4284L22.4427 20.6189H22.4681C22.5187 20.6696 22.5441 20.7456 22.5694 20.7963C23.1013 21.6575 23.4813 22.5441 23.6839 23.2533C23.7093 23.3546 23.8359 23.4053 23.9119 23.3546C24.2918 23.1013 24.7985 22.7974 25.2797 22.4174L26.1156 21.7335C26.2423 21.6322 26.3689 21.5055 26.4449 21.3535L26.9515 20.543C26.9769 20.5176 27.0275 20.5176 27.0275 20.4923C27.1035 20.4416 27.1795 20.391 27.2555 20.3656C27.2808 20.4416 27.3315 20.5176 27.3822 20.5936C27.1795 21.0749 26.7742 21.8602 26.1156 22.5694C25.3811 23.456 24.5452 24.2159 23.9372 24.7225C23.8866 24.7478 23.8866 24.7985 23.8866 24.8745C23.9626 26.7236 23.7346 29.0793 24.6465 30.7764C25.3304 32.043 25.6597 33.0055 25.837 33.6135C25.9383 33.9681 25.989 34.348 26.0143 34.7026L26.0397 35.7159C26.0397 35.9185 26.293 35.9439 26.3436 35.7665C26.5969 34.728 26.7742 33.4868 26.6729 32.195C26.4703 29.4339 26.0396 26.7489 27.5088 24.6971C27.6355 24.5198 27.7875 24.3425 27.9394 24.1652C28.1421 23.9372 28.3447 23.7346 28.5474 23.5319L29.5859 22.4174C29.7886 22.4934 30.0165 22.5187 30.2192 22.5441C30.2445 22.5441 30.2698 22.5441 30.2952 22.5441C30.3965 22.5441 30.5231 22.5441 30.6498 22.5187L29.9152 23.4813C29.8899 23.5066 29.8645 23.5573 29.8392 23.5826L29.4086 24.1146C28.5474 25.3304 27.9394 26.8502 28.1421 28.6487C28.1674 28.9273 28.2181 29.206 28.2434 29.4593C28.2434 29.4593 28.446 30.4725 28.674 31.815C28.8767 33.0815 29.1046 34.6267 29.1553 35.8679C29.1806 36.2985 29.1806 36.7038 29.1806 37.0331C29.1553 38.2489 29.1046 39.2115 28.978 40.1234C36.5264 36.9824 41.8458 29.5099 41.8458 20.8216C41.8458 19.4791 41.7192 18.1619 41.4659 16.8954C40.8073 17.25 40.098 17.4526 39.7687 17.478ZM37.5903 17.5793C37.641 17.63 37.6916 17.6806 37.717 17.7313C37.7423 17.8073 37.6916 17.8833 37.641 17.9339C37.4383 18.3899 36.1212 19.2005 35.6399 19.3271C35.1839 19.4538 34.6773 19.3778 34.2214 19.2005C33.7654 19.0231 33.3601 18.7445 32.9548 18.4912C32.9042 18.4659 32.8535 18.4406 32.8535 18.3899C32.8535 18.3392 32.8535 18.2885 32.8789 18.2379C33.2082 17.63 33.7148 17.098 34.3227 16.8194C34.9306 16.5408 35.6905 16.4648 36.3238 16.7181C36.8051 16.8954 37.2104 17.25 37.5903 17.5793ZM35.4119 12.7665C35.8932 12.8932 36.3238 13.1971 36.7544 13.5011C36.8051 13.5518 36.8557 13.5771 36.8811 13.6531C36.9064 13.7291 36.8811 13.8051 36.8304 13.8557C36.6784 14.3117 35.4372 15.2742 34.9813 15.4515C34.5253 15.6289 34.0187 15.6035 33.5628 15.4769C33.1068 15.3502 32.6762 15.1223 32.2456 14.8943C32.1949 14.869 32.1443 14.8436 32.1443 14.793C32.1189 14.7423 32.1443 14.6916 32.1696 14.641C32.4229 14.0077 32.8789 13.4251 33.4615 13.0705C33.9934 12.7159 34.728 12.5892 35.4119 12.7665ZM34.5507 10.4108C34.5253 10.8921 33.6134 12.1586 33.2335 12.4626C32.8535 12.7665 32.3469 12.8932 31.8656 12.8932C31.3844 12.8932 30.9031 12.8172 30.4218 12.7159C30.3711 12.7159 30.3205 12.6905 30.2952 12.6399C30.2698 12.5892 30.2698 12.5386 30.2698 12.4879C30.3458 11.804 30.5991 11.1201 31.0551 10.6134C31.511 10.1068 32.1696 9.7522 32.8789 9.7522C33.3855 9.7522 33.8921 9.9042 34.3734 10.0815C34.4493 10.1068 34.5 10.1322 34.5507 10.1828C34.576 10.2588 34.576 10.3348 34.5507 10.4108ZM33.8414 5.92732C34.348 5.92732 34.8546 6.07931 35.3359 6.25663C35.4119 6.28196 35.4626 6.30729 35.5132 6.35795C35.5639 6.40862 35.5386 6.50992 35.5132 6.56058C35.4879 7.04186 34.576 8.30837 34.196 8.61234C33.8161 8.9163 33.3095 9.04297 32.8282 9.04297C32.3469 9.04297 31.8656 8.96696 31.3844 8.86564C31.3337 8.86564 31.283 8.84033 31.2577 8.78967C31.2324 8.73901 31.2324 8.68835 31.2324 8.63769C31.3084 7.95377 31.5617 7.26984 32.0176 6.76323C32.4989 6.28196 33.1575 5.95265 33.8414 5.92732ZM28.2181 5.59804C28.6233 5.04077 29.2313 4.63547 29.9152 4.53415C30.4218 4.48349 30.9284 4.5848 31.435 4.68612C31.511 4.71145 31.5617 4.71147 31.6123 4.76213C31.663 4.81279 31.663 4.88879 31.6377 4.96478C31.663 5.44606 30.9031 6.81389 30.5485 7.16851C30.1938 7.49781 29.7126 7.67514 29.2313 7.75113C28.75 7.80179 28.2687 7.77643 27.7874 7.72577C27.7368 7.72577 27.6861 7.72578 27.6355 7.67512C27.6101 7.64979 27.6101 7.57381 27.6101 7.52315C27.6101 6.86456 27.8128 6.15531 28.2181 5.59804ZM30.1178 9.1443C30.1432 9.62558 29.3833 10.9934 29.0286 11.348C28.674 11.6773 28.1927 11.8547 27.7115 11.9306C27.2302 11.9813 26.7489 11.9559 26.2676 11.9053C26.217 11.9053 26.1663 11.9053 26.1156 11.8546C26.0903 11.8293 26.0903 11.7533 26.0903 11.7027C26.0903 11.0187 26.2676 10.3095 26.6729 9.7522C27.0782 9.19493 27.6861 8.78966 28.37 8.68834C28.8767 8.63768 29.3833 8.73899 29.8899 8.84031C29.9659 8.86565 30.0165 8.86566 30.0672 8.91632C30.1178 8.99231 30.1178 9.06831 30.1178 9.1443ZM29.6619 13.8051C29.5606 14.2863 28.4207 15.3502 27.9901 15.5782C27.5595 15.8062 27.0529 15.8315 26.5716 15.7555C26.0903 15.6795 25.6344 15.4769 25.2037 15.2996C25.1531 15.2742 25.1024 15.2489 25.0771 15.1982C25.0518 15.1476 25.0771 15.0969 25.0771 15.0463C25.2797 14.3877 25.6597 13.7798 26.217 13.3491C26.7742 12.9439 27.4835 12.7159 28.1674 12.8425C28.674 12.9185 29.13 13.1972 29.5606 13.4505C29.6112 13.4758 29.6872 13.5265 29.7126 13.5771C29.7379 13.6531 29.7126 13.7291 29.6619 13.8051ZM26.6729 16.1102C26.6476 16.1102 26.6476 16.1102 26.6222 16.1102C26.6476 16.1102 26.6729 16.1102 26.6729 16.1102ZM26.6729 6.66191C26.6982 7.16851 25.837 8.53634 25.4571 8.86564C25.0771 9.19493 24.5958 9.34694 24.0892 9.3976C23.5826 9.44826 23.1013 9.37227 22.5947 9.29627C22.5441 9.29627 22.4934 9.27093 22.4427 9.24559C22.4174 9.19493 22.4174 9.14428 22.4174 9.09362C22.4427 8.38437 22.6707 7.67514 23.1013 7.11787C23.5319 6.5606 24.1905 6.18064 24.8998 6.10465C25.4317 6.05399 25.9383 6.20595 26.4449 6.3326C26.5209 6.35793 26.5716 6.38327 26.6222 6.43393C26.6982 6.50992 26.6982 6.58592 26.6729 6.66191ZM23.3293 10.3348C23.8866 10.1828 24.4692 10.2335 25.0518 10.2588C25.1278 10.2588 25.2038 10.2842 25.2797 10.3095C25.3557 10.3602 25.3557 10.4615 25.3557 10.5375C25.4824 11.0694 24.8491 12.7412 24.4945 13.1972C24.1652 13.6278 23.6586 13.9064 23.1267 14.0584C22.5947 14.2104 22.0375 14.2357 21.4802 14.261C21.4295 14.261 21.3535 14.261 21.3029 14.2357C21.2522 14.2104 21.2522 14.1344 21.2269 14.0837C21.1002 13.2985 21.2015 12.4879 21.5562 11.804C21.9108 11.1201 22.5694 10.5375 23.3293 10.3348ZM25.0518 1.62115C25.4317 1.26653 25.8877 1.06388 26.3689 0.86124C26.4196 0.835909 26.4956 0.810591 26.5716 0.810591C26.6476 0.835922 26.6982 0.886576 26.7236 0.962567C27.0275 1.34252 27.2302 2.88768 27.1542 3.36896C27.0782 3.85023 26.7996 4.28086 26.4449 4.61015C26.0903 4.93945 25.685 5.19273 25.2544 5.44604C25.2037 5.47137 25.1531 5.49671 25.1024 5.49671C25.0518 5.49671 25.0264 5.44605 24.9758 5.39539C24.5705 4.83812 24.2918 4.17953 24.2918 3.47028C24.2918 2.78636 24.5452 2.0771 25.0518 1.62115ZM21.1509 2.8117C21.4802 2.40641 21.9108 2.15309 22.3414 1.87446C22.3921 1.84913 22.4681 1.79848 22.5187 1.79848C22.5947 1.79848 22.6454 1.84914 22.696 1.92513C23.0507 2.25443 23.4559 3.77424 23.4559 4.25552C23.4306 4.7368 23.228 5.19273 22.924 5.57269C22.62 5.95264 22.2401 6.25661 21.8601 6.56058C21.8095 6.58591 21.7841 6.63658 21.7335 6.63658C21.6828 6.63658 21.6322 6.58591 21.6068 6.56058C21.1256 6.0793 20.7709 5.44605 20.6696 4.76213C20.543 4.07821 20.7203 3.36897 21.1509 2.8117ZM17.5793 4.61015C17.9086 4.20486 18.3392 3.95154 18.7698 3.67291C18.8205 3.64758 18.8965 3.59694 18.9471 3.59694C19.0231 3.59694 19.0738 3.6476 19.1245 3.72359C19.4791 4.05288 19.8844 5.57269 19.8844 6.05397C19.859 6.53525 19.6564 6.99121 19.3524 7.37117C19.0485 7.75113 18.6685 8.05507 18.2885 8.35903C18.2379 8.38436 18.2126 8.43503 18.1619 8.43503C18.1112 8.43503 18.0606 8.38436 18.0352 8.35903C17.554 7.87775 17.1993 7.2445 17.098 6.56058C16.9967 5.87666 17.1487 5.14209 17.5793 4.61015ZM16.6927 10.1828C16.4648 10.6135 16.1608 10.9934 15.8568 11.3734C15.8315 11.424 15.7808 11.4494 15.7302 11.4747C15.6795 11.4747 15.6289 11.4494 15.6035 11.424C15.0463 11.0441 14.565 10.4868 14.337 9.82821C14.109 9.16962 14.1344 8.43503 14.4383 7.8271C14.6663 7.37115 15.0463 7.01653 15.4262 6.68723C15.4769 6.63657 15.5275 6.5859 15.6035 6.5859C15.6795 6.5859 15.7555 6.61124 15.8062 6.68723C16.2368 6.94054 16.9207 8.33371 16.9967 8.81499C17.0474 9.24561 16.9207 9.75222 16.6927 10.1828ZM12.0826 9.67623C12.5639 9.72689 13.7291 10.6388 14.0077 11.0187C14.2863 11.3987 14.3877 11.88 14.3623 12.3359C14.3623 12.7919 14.2357 13.2478 14.1344 13.7038C14.1344 13.7544 14.109 13.8051 14.0584 13.8304C14.0077 13.8558 13.957 13.8557 13.9064 13.8557C13.2478 13.7544 12.6145 13.4758 12.1333 13.0198C11.652 12.5639 11.348 11.9053 11.3734 11.2467C11.3987 10.7654 11.576 10.2842 11.7533 9.82821C11.7786 9.77755 11.804 9.70156 11.8546 9.67623C11.9306 9.6509 12.0066 9.6509 12.0826 9.67623ZM14.0837 2.20376C14.3117 1.74782 14.6916 1.3932 15.0716 1.03857C15.1222 0.98791 15.1729 0.937243 15.2489 0.937243C15.3249 0.937243 15.4009 0.96258 15.4515 1.03857C15.8822 1.29188 16.5661 2.68502 16.6421 3.1663C16.7181 3.64758 16.5914 4.12885 16.3888 4.55947C16.1608 4.99009 15.8568 5.37006 15.5529 5.75002C15.5275 5.80068 15.4769 5.82602 15.4262 5.85135C15.3755 5.85135 15.3249 5.826 15.2996 5.80067C14.717 5.42071 14.261 4.86345 14.0077 4.2302C13.7544 3.5716 13.7544 2.81169 14.0837 2.20376ZM11.2467 5.26873C11.424 4.78746 11.7533 4.38217 12.0826 4.00222C12.1333 3.95155 12.1839 3.90089 12.2346 3.87556C12.3106 3.85023 12.3866 3.90091 12.4372 3.95157C12.8932 4.12888 13.7544 5.44605 13.9064 5.902C14.0584 6.35794 13.9824 6.86454 13.8304 7.32049C13.6784 7.77644 13.3998 8.18172 13.1465 8.61234C13.1211 8.663 13.0958 8.71366 13.0452 8.71366C12.9945 8.73899 12.9438 8.71367 12.8932 8.68834C12.2852 8.38437 11.728 7.9031 11.424 7.29517C11.12 6.68724 11.0187 5.92733 11.2467 5.26873ZM10.7654 14.337C10.8161 14.2864 10.8921 14.261 10.9681 14.261C11.424 14.109 12.9438 14.5397 13.3491 14.793C13.7544 15.0463 14.033 15.4769 14.2104 15.9328C14.3877 16.3888 14.4637 16.87 14.5143 17.3513C14.5143 17.402 14.5397 17.4527 14.489 17.5033C14.4637 17.554 14.413 17.554 14.3623 17.5793C13.7037 17.7566 12.9692 17.7313 12.3359 17.478C11.7026 17.2247 11.1454 16.7181 10.9174 16.0595C10.7401 15.5782 10.7148 15.0716 10.7148 14.565C10.7148 14.4637 10.7148 14.3877 10.7654 14.337ZM6.43392 21.7335C6.73789 21.3535 8.23238 20.8976 8.73899 20.8976C9.22026 20.8976 9.70154 21.1002 10.0815 21.3789C10.4615 21.6575 10.7908 22.0375 11.12 22.3921C11.1454 22.4427 11.196 22.4681 11.196 22.5187C11.196 22.5694 11.1707 22.6201 11.12 22.6454C10.6388 23.152 10.0308 23.5319 9.34692 23.6586C8.663 23.7852 7.92842 23.6586 7.37115 23.2533C6.96586 22.9494 6.6619 22.5187 6.38326 22.0881C6.35793 22.0375 6.30727 21.9615 6.30727 21.9108C6.30727 21.8348 6.35793 21.7842 6.43392 21.7335ZM10.2588 20.239C9.57489 20.2897 8.86564 20.087 8.35903 19.6057C7.97908 19.2511 7.7511 18.7952 7.4978 18.3392C7.47247 18.2886 7.44714 18.2126 7.44714 18.1366C7.44714 18.0606 7.52313 18.0099 7.59912 17.9846C7.95374 17.6553 9.47357 17.3513 9.98018 17.402C10.4615 17.4527 10.9174 17.706 11.272 18.0353C11.6267 18.3646 11.9053 18.7698 12.1839 19.1498C12.2093 19.2005 12.2346 19.2511 12.2346 19.3018C12.2346 19.3524 12.1839 19.3778 12.1586 19.4284C11.6013 19.8591 10.9427 20.163 10.2588 20.239ZM7.64978 5.29406C7.67511 5.21807 7.67511 5.16742 7.72577 5.11676C7.77643 5.0661 7.85242 5.0661 7.92842 5.09143C8.40969 5.0661 9.77754 5.85133 10.1068 6.18062C10.4361 6.53525 10.6134 7.01654 10.6641 7.49782C10.7148 7.9791 10.6641 8.46037 10.6388 8.94164C10.6388 8.9923 10.6388 9.04296 10.5881 9.09362C10.5628 9.11895 10.4868 9.11894 10.4361 9.11894C9.75221 9.11894 9.04295 8.91632 8.48568 8.51104C7.92841 8.10575 7.52313 7.47248 7.44714 6.78856C7.39648 6.28195 7.52313 5.77534 7.64978 5.29406ZM7.64978 9.22027C7.67511 9.14428 7.70044 9.09363 7.7511 9.04297C7.80176 8.99231 7.87776 8.99232 7.95375 9.01765C8.43502 9.01765 9.7522 9.85354 10.0815 10.2082C10.4108 10.5628 10.5374 11.0694 10.5881 11.5507C10.6134 12.032 10.5628 12.5132 10.4868 12.9945C10.4868 13.0452 10.4615 13.0958 10.4361 13.1465C10.3855 13.1718 10.3348 13.1718 10.2841 13.1718C9.60022 13.1465 8.9163 12.9185 8.38436 12.4879C7.85242 12.0573 7.47247 11.3987 7.42181 10.7148C7.37115 10.2082 7.4978 9.72688 7.64978 9.22027ZM5.72467 13.0958C5.77533 13.0198 5.82599 12.9945 5.92732 12.9945C6.38326 12.8172 7.90308 13.1212 8.35903 13.3238C8.78965 13.5518 9.09361 13.9571 9.32159 14.3877C9.52423 14.8183 9.65088 15.2996 9.7522 15.7809C9.7522 15.8315 9.77753 15.8822 9.7522 15.9328C9.72687 15.9835 9.67621 16.0088 9.62555 16.0088C8.96696 16.2368 8.25771 16.2621 7.59912 16.0595C6.94053 15.8568 6.35793 15.4009 6.05397 14.7676C5.82599 14.3117 5.77533 13.7797 5.72467 13.2731C5.69934 13.2225 5.69934 13.1465 5.72467 13.0958ZM2.0011 15.9328C1.97577 15.8822 1.95044 15.8062 1.95044 15.7302C1.97577 15.6542 2.02643 15.6035 2.10242 15.5782C2.45705 15.2489 4.00221 15.0209 4.48348 15.0716C4.96476 15.1476 5.39538 15.4009 5.75 15.7555C6.10463 16.0848 6.35793 16.5154 6.63657 16.9207C6.6619 16.9714 6.68723 17.022 6.68723 17.0727C6.68723 17.1234 6.63657 17.1487 6.61124 17.1993C6.0793 17.63 5.39538 17.9086 4.71146 17.9339C4.02753 17.9593 3.31829 17.7313 2.83701 17.25C2.45705 16.8701 2.22908 16.4141 2.0011 15.9328ZM2.27974 19.7071C2.25441 19.6564 2.20375 19.5804 2.20375 19.5298C2.20375 19.4538 2.25441 19.4031 2.3304 19.3524C2.63436 18.9725 4.12886 18.5165 4.63546 18.5165C5.11674 18.5165 5.59802 18.7192 5.97798 18.9978C6.35793 19.2764 6.68723 19.6564 7.01652 20.011C7.04185 20.0617 7.09251 20.087 7.09251 20.1377C7.09251 20.1883 7.06718 20.239 7.01652 20.2643C6.53525 20.7709 5.92732 21.1509 5.2434 21.2775C4.55947 21.4042 3.82489 21.2775 3.26762 20.8723C2.86234 20.5683 2.55837 20.1377 2.27974 19.7071ZM3.14097 25.3051C2.65969 25.1278 2.25441 24.7985 1.87445 24.4692C1.82379 24.4185 1.77313 24.3678 1.7478 24.3172C1.72247 24.2412 1.77313 24.1652 1.82379 24.1146C2.02643 23.6586 3.31828 22.7974 3.77423 22.6454C4.23018 22.4934 4.73678 22.5694 5.19273 22.7214C5.64868 22.8734 6.05397 23.152 6.48458 23.4053C6.53524 23.4306 6.5859 23.456 6.5859 23.5066C6.61123 23.5573 6.58591 23.6079 6.56058 23.6586C6.25661 24.2665 5.77533 24.7985 5.1674 25.1278C4.53414 25.4571 3.77423 25.5584 3.14097 25.3051ZM6.96586 27.9901C6.45925 28.0661 5.95264 27.9901 5.44604 27.9141C5.37004 27.9141 5.31938 27.8888 5.26872 27.8381C5.21806 27.7875 5.21806 27.7115 5.21806 27.6355C5.1674 27.1542 5.85132 25.761 6.18062 25.4064C6.50991 25.0518 6.99119 24.8491 7.44714 24.7731C7.92842 24.6971 8.40969 24.6972 8.89097 24.7225C8.94163 24.7225 8.99229 24.7225 9.04296 24.7731C9.06828 24.7985 9.09361 24.8745 9.09361 24.9251C9.11895 25.609 8.96696 26.3183 8.61234 26.9009C8.25771 27.4328 7.64978 27.8634 6.96586 27.9901ZM11.8293 28.37C11.7786 29.054 11.4493 29.7379 10.8921 30.1432C10.4868 30.4471 10.0055 30.6245 9.4989 30.7764C9.42291 30.8018 9.37225 30.8271 9.29626 30.8018C9.22027 30.7765 9.16961 30.7004 9.16961 30.6245C8.89097 30.2192 8.84031 28.6487 8.96696 28.1927C9.09361 27.7368 9.42291 27.3315 9.80287 27.0276C10.1828 26.7236 10.6134 26.5209 11.0694 26.3183C11.12 26.293 11.1707 26.2676 11.2214 26.293C11.272 26.3183 11.2974 26.3436 11.3227 26.3943C11.7026 26.9769 11.9053 27.6861 11.8293 28.37ZM14.5903 22.8734C14.5143 23.5573 14.261 24.2412 13.8051 24.7478C13.3491 25.2544 12.6905 25.6091 12.0066 25.6091C11.5 25.6091 10.9934 25.4571 10.5121 25.2797C10.4361 25.2544 10.3855 25.2291 10.3348 25.1784C10.2841 25.1278 10.3095 25.0265 10.3348 24.9758C10.3601 24.4945 11.2467 23.2026 11.652 22.924C12.0319 22.62 12.5385 22.4934 13.0198 22.4934C13.5011 22.4934 13.9824 22.5694 14.4637 22.6707C14.5143 22.6707 14.565 22.696 14.5903 22.7467C14.5903 22.772 14.5903 22.8227 14.5903 22.8734ZM16.6927 19.1245C16.5661 19.8084 16.2621 20.467 15.7808 20.9483C15.2996 21.4295 14.5903 21.7335 13.9064 21.6828C13.3998 21.6575 12.9185 21.4549 12.4372 21.2522C12.3866 21.2269 12.3106 21.2015 12.2852 21.1509C12.2346 21.0749 12.2599 20.9989 12.2852 20.9229C12.3359 20.4417 13.3238 19.2258 13.7291 18.9471C14.1344 18.6685 14.641 18.5925 15.1223 18.6178C15.6035 18.6432 16.0848 18.7698 16.5408 18.8965C16.5914 18.9218 16.6421 18.9218 16.6674 18.9725C16.6927 19.0231 16.6927 19.0738 16.6927 19.1245ZM17.8073 15.7302C17.6806 16.2115 17.478 16.6421 17.25 17.0727C17.2247 17.1234 17.1993 17.174 17.1487 17.1993C17.098 17.2247 17.0474 17.1994 16.9967 17.174C16.3634 16.9207 15.7808 16.4901 15.4009 15.9075C15.2236 15.6289 14.7676 14.9703 15.0463 13.9317C15.1729 13.4504 15.4769 12.9945 15.7555 12.5892C15.7808 12.5386 15.8315 12.4626 15.9075 12.4626C15.9835 12.4372 16.0595 12.4626 16.1101 12.5132C16.5661 12.6652 17.554 13.8811 17.7566 14.337C17.9339 14.7676 17.9086 15.2743 17.8073 15.7302ZM17.9592 10.9934C18.0099 10.2335 18.3392 9.49892 18.9218 9.01765C19.3524 8.66302 19.8844 8.46037 20.4163 8.28306C20.4923 8.25773 20.5683 8.2324 20.6189 8.25773C20.6949 8.28306 20.7456 8.35904 20.7709 8.43503C21.1002 8.86565 21.1762 10.5628 21.0749 11.0947C20.9482 11.6013 20.6189 12.0573 20.2137 12.3866C19.8084 12.7159 19.3271 12.9692 18.8711 13.2225C18.8205 13.2478 18.7698 13.2731 18.7192 13.2731C18.6685 13.2478 18.6432 13.2225 18.5925 13.1718C18.1619 12.4879 17.9086 11.7533 17.9592 10.9934ZM21.6322 18.0099C21.1255 18.2379 20.543 18.2379 20.011 18.1366C19.4791 18.0099 18.9725 17.782 18.4659 17.554C18.4152 17.5286 18.3645 17.5033 18.3392 17.4527C18.3139 17.402 18.3392 17.3513 18.3645 17.2754C18.6178 16.5408 19.0991 15.8568 19.7324 15.4009C20.3656 14.9449 21.2015 14.7423 21.9615 14.9196C22.5187 15.0463 23.0253 15.3502 23.5319 15.6542C23.6079 15.7049 23.6586 15.7302 23.6839 15.8062C23.7093 15.8822 23.6839 15.9835 23.6333 16.0595C23.4813 16.6167 22.1388 17.782 21.6322 18.0099ZM28.0661 18.5925C27.7875 19.0738 26.217 19.8844 25.6597 19.9857C25.1278 20.087 24.5452 19.9604 24.0639 19.7071C23.5573 19.4538 23.1267 19.1245 22.696 18.7698C22.6454 18.7445 22.5947 18.6939 22.5947 18.6432C22.5947 18.5925 22.62 18.5419 22.6454 18.4912C23.076 17.8326 23.6839 17.3007 24.4185 17.022C25.1531 16.7434 25.989 16.7434 26.6982 17.098C27.2048 17.3513 27.6355 17.7819 28.0408 18.2126C28.0914 18.2632 28.1421 18.3392 28.1674 18.4152C28.1674 18.4405 28.1167 18.5165 28.0661 18.5925ZM27.8634 17.2754C27.8128 17.25 27.7621 17.2247 27.7621 17.174C27.7621 17.1234 27.7621 17.0727 27.7874 17.022C28.1167 16.4141 28.598 15.8822 29.2313 15.5782C29.8645 15.2742 30.5991 15.1982 31.2324 15.4515C31.7137 15.6289 32.0936 15.9835 32.4989 16.3128C32.5496 16.3634 32.6002 16.4141 32.6256 16.4648C32.6509 16.5408 32.6002 16.6168 32.5496 16.6674C32.3469 17.1234 31.0297 17.9593 30.5738 18.0859C30.1178 18.2126 29.6112 18.1366 29.1553 17.9846C28.674 17.8326 28.2687 17.554 27.8634 17.2754ZM30.9031 21.4802C30.4218 21.4549 29.9659 21.2269 29.5859 20.8976C29.206 20.5936 28.9273 20.1883 28.6233 19.8084C28.598 19.7577 28.5474 19.7324 28.5727 19.6817C28.5727 19.6311 28.6234 19.5804 28.6487 19.5551C29.1553 19.0738 29.7886 18.7445 30.4725 18.6685C31.1564 18.5925 31.891 18.7698 32.3976 19.2005C32.7775 19.5297 33.0562 19.9857 33.3095 20.4163C33.3348 20.467 33.3855 20.543 33.3601 20.5936C33.3601 20.6696 33.2841 20.7203 33.2335 20.7709C32.9042 21.1509 31.3844 21.5055 30.9031 21.4802ZM37.1597 23.8613C37.1344 23.9372 37.0837 23.9879 37.0077 24.0132C36.6278 24.3172 35.0573 24.4185 34.576 24.2919C34.0947 24.1905 33.6894 23.8866 33.3855 23.5066C33.0815 23.1267 32.8535 22.696 32.6256 22.2654C32.6002 22.2148 32.5749 22.1641 32.6002 22.1134C32.6002 22.0628 32.6509 22.0375 32.7015 22.0121C33.2841 21.6322 33.9681 21.4042 34.652 21.4295C35.3359 21.4549 36.0198 21.7588 36.4758 22.2908C36.8051 22.6707 36.9824 23.1773 37.1597 23.6333C37.1597 23.7346 37.185 23.7853 37.1597 23.8613ZM40.554 20.9736C40.3007 21.3789 38.8568 22.0375 38.3756 22.0881C37.8943 22.1641 37.413 22.0121 36.9824 21.7588C36.5518 21.5308 36.1971 21.2015 35.8425 20.8723C35.7919 20.8469 35.7665 20.7963 35.7665 20.7456C35.7665 20.6949 35.7919 20.6443 35.8172 20.6189C36.2225 20.0617 36.7797 19.6058 37.4383 19.4031C38.0969 19.2005 38.8315 19.2258 39.4394 19.5804C39.87 19.8337 40.2247 20.2137 40.554 20.6189C40.6046 20.6696 40.6553 20.7203 40.6553 20.7963C40.6553 20.8469 40.6046 20.9229 40.554 20.9736Z" fill="#415E3A"></path><path d="M25.1786 41.3643C25.0266 41.3896 24.8746 41.4149 24.7227 41.4403C24.8746 41.4149 25.0266 41.3896 25.1786 41.3643Z" fill="#415E3A"></path><path d="M23.1766 41.6685C23.0246 41.6938 22.8726 41.6938 22.6953 41.7191C22.8726 41.6938 23.0246 41.6938 23.1766 41.6685Z" fill="#415E3A"></path><path d="M67.5314 2.05182L65.6063 5.37009L65.2517 5.14211C65.3277 4.86348 65.353 4.66083 65.353 4.53418C65.353 4.3062 65.1504 4.07822 64.7451 3.79959C63.0986 2.73571 61.1482 2.20379 58.9191 2.20379C56.7407 2.20379 54.9169 2.81172 53.4477 4.00224C51.8012 5.34475 50.9907 7.11789 50.9907 9.27098C50.9907 11.6267 51.9026 13.5265 53.7264 14.9196C55.1449 16.0342 56.8673 16.5914 58.8431 16.5914C61.0722 16.5914 63.0226 15.9329 64.6691 14.641C65.3277 14.1344 65.6316 13.7544 65.6316 13.5265C65.6316 13.3492 65.5556 13.0959 65.3783 12.7412L65.733 12.5132L68.1393 15.6036L67.8101 15.8822C67.4554 15.5529 67.2021 15.4009 67.0501 15.4009C66.9742 15.4009 66.8475 15.4769 66.6702 15.6036C65.4037 16.5915 64.1371 17.3007 62.8706 17.7567C61.6041 18.1873 60.1856 18.4152 58.6151 18.4152C55.8794 18.4152 53.625 17.6807 51.8519 16.1862C50.9653 15.4516 50.2561 14.565 49.7242 13.5518C49.0402 12.2599 48.7109 10.8668 48.7109 9.37227C48.7109 6.5606 49.8255 4.28089 52.0292 2.55842C53.8783 1.13992 56.1834 0.430664 58.9444 0.430664C61.4015 0.430664 63.7572 1.03858 66.0116 2.25444C66.2142 2.35576 66.3662 2.40642 66.4675 2.40642C66.6955 2.40642 66.9235 2.22911 67.2021 1.87448L67.5314 2.05182Z" fill="#415E3A"></path><path d="M83.5916 13.1463H74.5487L73.2568 16.034C73.1049 16.3886 73.0035 16.6673 73.0035 16.8446C73.0035 17.1992 73.2822 17.4525 73.8141 17.5792V17.9844H69.5586V17.5792C69.9639 17.5032 70.2932 17.3512 70.5211 17.0979C70.7491 16.8446 71.0278 16.3633 71.3571 15.6541L77.0564 3.24216C77.3857 2.55824 77.5377 2.07696 77.5377 1.82366C77.5377 1.46904 77.2844 1.24107 76.7778 1.16508V0.759766H81.7932V1.16508C81.2866 1.2664 81.0333 1.49437 81.0333 1.82366C81.0333 2.0263 81.2359 2.55824 81.6412 3.47014L87.1126 15.4007C87.4925 16.186 87.7965 16.7433 88.0751 17.0219C88.3537 17.3259 88.683 17.5032 89.0883 17.5538V17.9591H84.6049V17.5538C85.0861 17.4525 85.3141 17.2752 85.3141 17.0219C85.3141 16.8952 85.1875 16.566 84.9341 16.0087L83.5916 13.1463ZM82.8571 11.4745L79.0828 3.01418L75.2833 11.4745H82.8571Z" fill="#415E3A"></path><path d="M107.225 1.6465L105.528 4.99014L105.148 4.8128C105.198 4.50884 105.224 4.30622 105.224 4.2049C105.224 3.9516 104.894 3.67296 104.21 3.31834C102.792 2.55842 101.069 2.17847 99.043 2.17847C97.4219 2.17847 96.0287 2.48243 94.8888 3.09036C93.749 3.69829 93.1917 4.55951 93.1917 5.64872C93.1917 6.13 93.3437 6.58596 93.6223 6.99124C93.9009 7.39653 94.3062 7.67515 94.7875 7.82713C95.2688 7.97911 95.8007 8.10577 96.358 8.15644C96.9153 8.2071 98.1311 8.25774 99.9802 8.33374C101.525 8.3844 102.691 8.48574 103.501 8.63772C104.286 8.7897 104.97 9.01766 105.553 9.32163C106.161 9.65092 106.642 10.1575 106.997 10.7908C107.351 11.4241 107.529 12.1333 107.529 12.8932C107.529 14.489 106.87 15.7555 105.578 16.6928C104.008 17.8073 101.956 18.3646 99.347 18.3646C98.0805 18.3646 96.7379 18.1619 95.3448 17.782C93.9516 17.402 92.6344 16.8701 91.4439 16.1862C91.2919 16.0848 91.1653 16.0342 91.0639 16.0342C90.912 16.0342 90.684 16.2115 90.38 16.5661L90.0254 16.3381L91.9758 13.0705L92.3558 13.2985C92.3305 13.4251 92.3051 13.5011 92.3051 13.5518C92.2545 13.7038 92.2291 13.8558 92.2291 13.9571C92.2291 14.2357 92.7611 14.6664 93.7996 15.2236C95.5728 16.1608 97.3965 16.6168 99.2963 16.6168C101.019 16.6168 102.463 16.3128 103.628 15.7302C104.185 15.4516 104.616 15.0463 104.945 14.565C105.274 14.0837 105.426 13.5771 105.426 13.0452C105.426 12.5639 105.3 12.108 105.021 11.728C104.742 11.3481 104.388 11.0694 103.932 10.8921C103.501 10.7401 103.045 10.6388 102.513 10.5881C102.007 10.5375 101.019 10.4615 99.575 10.4108C97.8778 10.3349 96.662 10.2589 95.9527 10.1575C95.2181 10.0562 94.5342 9.90424 93.9009 9.65094C93.0904 9.34697 92.4064 8.86567 91.9252 8.20708C91.4186 7.52316 91.1653 6.7126 91.1653 5.77537C91.1653 4.1289 91.9252 2.83704 93.4197 1.87448C94.9395 0.911929 96.8899 0.430664 99.2457 0.430664C101.399 0.430664 103.577 0.911929 105.73 1.87448C106.06 2.00114 106.237 2.07714 106.288 2.07714C106.439 2.07714 106.642 1.89981 106.87 1.51985L107.225 1.6465Z" fill="#415E3A"></path><path d="M122.599 13.1463H113.556L112.265 16.034C112.113 16.3886 112.011 16.6673 112.011 16.8446C112.011 17.1992 112.29 17.4525 112.822 17.5792V17.9844H108.566V17.5792C108.972 17.5032 109.301 17.3512 109.529 17.0979C109.757 16.8446 110.036 16.3633 110.365 15.6541L116.064 3.24216C116.393 2.55824 116.545 2.07696 116.545 1.82366C116.545 1.46904 116.292 1.24107 115.786 1.16508V0.759766H120.801V1.16508C120.294 1.2664 120.041 1.49437 120.041 1.82366C120.041 2.0263 120.244 2.55824 120.649 3.47014L126.12 15.4007C126.5 16.186 126.804 16.7433 127.083 17.0219C127.362 17.3259 127.691 17.5032 128.096 17.5538V17.9591H123.613V17.5538C124.094 17.4525 124.322 17.2752 124.322 17.0219C124.322 16.8952 124.195 16.566 123.942 16.0087L122.599 13.1463ZM121.89 11.4745L118.116 3.01418L114.316 11.4745H121.89Z" fill="#415E3A"></path><path d="M65.9103 24.064L64.2132 27.4076L63.8332 27.2303C63.8839 26.9263 63.9092 26.7237 63.9092 26.6224C63.9092 26.3691 63.5799 26.0904 62.9214 25.7358C61.5028 24.9759 59.7804 24.5959 57.754 24.5959C56.1328 24.5959 54.7396 24.8999 53.5998 25.5078C52.4599 26.1158 51.9026 26.977 51.9026 28.0662C51.9026 28.5475 52.0546 29.0034 52.3332 29.4087C52.6119 29.814 53.0172 30.0926 53.4984 30.2446C53.9797 30.3966 54.5117 30.5233 55.0689 30.5739C55.6262 30.6246 56.8421 30.6752 58.6912 30.7512C60.2363 30.8019 61.4015 30.9032 62.2121 31.0552C62.9973 31.2072 63.6813 31.4351 64.2639 31.7391C64.8718 32.0684 65.3531 32.575 65.7077 33.2083C66.0623 33.8415 66.2396 34.5508 66.2396 35.3107C66.2396 36.9065 65.5811 38.173 64.2892 39.1102C62.7187 40.2248 60.667 40.782 58.0579 40.782C56.7914 40.782 55.4489 40.5794 54.0557 40.1995C52.6625 39.8195 51.3454 39.2876 50.1548 38.6036C50.0028 38.5023 49.8762 38.4517 49.7749 38.4517C49.6229 38.4517 49.3949 38.629 49.091 38.9836L48.7363 38.7556L50.6868 35.488L51.0667 35.716C51.0414 35.8426 51.0161 35.9186 51.0161 35.9693C50.9654 36.1213 50.9401 36.2733 50.9401 36.3746C50.9401 36.6532 51.472 37.0838 52.5106 37.6411C54.2837 38.5783 56.1075 39.0343 58.0073 39.0343C59.7297 39.0343 61.1736 38.7303 62.3388 38.1477C62.896 37.8691 63.3266 37.4638 63.6559 36.9825C63.9852 36.5012 64.1372 35.9946 64.1372 35.4627C64.1372 34.9814 64.0106 34.5255 63.7319 34.1455C63.4533 33.7655 63.0987 33.4869 62.6427 33.3096C62.2121 33.1576 61.7562 33.0563 61.2242 33.0056C60.7176 32.955 59.7297 32.879 58.2859 32.8283C56.5888 32.7523 55.3729 32.6763 54.6636 32.575C53.9291 32.4737 53.2451 32.3217 52.6119 32.0684C51.8013 31.7645 51.1174 31.2832 50.6361 30.6246C50.1295 29.9406 49.8762 29.1301 49.8762 28.1929C49.8762 26.5464 50.6361 25.2545 52.1306 24.292C53.6504 23.3294 55.6009 22.8481 57.9566 22.8481C60.1097 22.8481 62.2881 23.3294 64.4412 24.292C64.7705 24.4186 64.9478 24.4946 64.9984 24.4946C65.1504 24.4946 65.3531 24.3173 65.581 23.9373L65.9103 24.064Z" fill="#415E3A"></path><path d="M77.612 24.9502V38.6793C77.612 39.1099 77.688 39.3886 77.8146 39.5912C77.9413 39.7685 78.1946 39.9205 78.5999 40.0218V40.4271H74.4204V40.0218C74.8003 39.9205 75.079 39.7685 75.2056 39.5912C75.3323 39.4139 75.4083 39.1099 75.4083 38.6793V24.9502H69.7849C69.3543 24.9502 69.0503 25.0262 68.873 25.1529C68.6957 25.2795 68.5691 25.5582 68.4677 25.9381H68.0371V22.2905H68.4424C68.5437 22.6705 68.6957 22.9491 68.8477 23.0758C69.025 23.2024 69.329 23.2784 69.7596 23.2784H83.21C83.6406 23.2784 83.9446 23.2024 84.1219 23.0758C84.2992 22.9491 84.4259 22.6705 84.5272 22.2905H84.9325V25.9381H84.5272C84.4259 25.5328 84.2739 25.2795 84.0966 25.1529C83.9193 25.0262 83.6153 24.9502 83.1847 24.9502H77.612Z" fill="#415E3A"></path><path d="M90.5822 32.3469V38.7302H101.221C101.652 38.7302 101.956 38.6542 102.133 38.5276C102.31 38.4009 102.437 38.1222 102.538 37.7423H102.969V41.3899H102.538C102.437 41.0099 102.31 40.7313 102.133 40.6046C101.956 40.478 101.652 40.402 101.221 40.402H87.3652V39.9967C87.7705 39.8954 88.0238 39.7434 88.1505 39.5661C88.2771 39.3888 88.3531 39.0848 88.3531 38.6542V24.8998C88.3531 24.4692 88.2771 24.1652 88.1505 23.9879C88.0238 23.8106 87.7452 23.6839 87.3652 23.5826V23.1773H101.12C101.55 23.1773 101.854 23.1013 102.032 22.9747C102.209 22.848 102.335 22.5694 102.437 22.1895H102.842V25.837H102.437C102.335 25.4317 102.184 25.1784 102.032 25.0518C101.854 24.9251 101.55 24.8491 101.12 24.8491H90.5822V30.6751H97.3201C97.7507 30.6751 98.0547 30.5991 98.232 30.4725C98.4093 30.3458 98.5359 30.0672 98.6373 29.6872H99.0426V33.3348H98.6373C98.5359 32.9295 98.384 32.6762 98.2066 32.5496C98.0293 32.4229 97.7254 32.3469 97.2948 32.3469H90.5822Z" fill="#415E3A"></path><path d="M109.377 32.347V38.6796C109.377 39.1102 109.453 39.3888 109.58 39.5915C109.706 39.7688 109.985 39.9208 110.365 40.0221V40.4274H106.186V40.0221C106.566 39.9208 106.844 39.7688 106.971 39.5915C107.097 39.4142 107.173 39.1102 107.173 38.6796V24.9252C107.173 24.4946 107.097 24.1906 106.971 24.0133C106.844 23.836 106.566 23.7093 106.186 23.608V23.2027H120.193C120.624 23.2027 120.903 23.1267 121.105 23.0001C121.282 22.8734 121.434 22.5948 121.536 22.2148H121.941V25.8624H121.536C121.434 25.4571 121.282 25.2038 121.105 25.0772C120.928 24.9505 120.624 24.8745 120.193 24.8745H109.377V30.6752H116.419C116.85 30.6752 117.154 30.5992 117.331 30.4725C117.508 30.3459 117.635 30.0673 117.736 29.6873H118.141V33.3349H117.736C117.635 32.9549 117.483 32.6763 117.331 32.5496C117.154 32.423 116.85 32.347 116.419 32.347H109.377Z" fill="#415E3A"></path><path d="M134.303 35.5638H125.26L123.968 38.4515C123.816 38.8061 123.714 39.0847 123.714 39.2621C123.714 39.6167 123.993 39.87 124.525 39.9966V40.4019H120.27V39.9966C120.675 39.9206 121.004 39.7687 121.232 39.5154C121.46 39.2621 121.739 38.7808 122.068 38.0715L127.767 25.6596C128.097 24.9757 128.249 24.4944 128.249 24.2411C128.249 23.8865 127.995 23.6585 127.489 23.5826V23.1772H132.504V23.5826C131.998 23.6839 131.744 23.9118 131.744 24.2411C131.744 24.4438 131.947 24.9757 132.352 25.8876L137.823 37.8182C138.203 38.6035 138.507 39.1607 138.786 39.4394C139.065 39.7433 139.394 39.9207 139.799 39.9713V40.3766H135.316V39.9713C135.797 39.87 136.025 39.6927 136.025 39.4394C136.025 39.3127 135.898 38.9834 135.645 38.4262L134.303 35.5638ZM133.593 33.892L129.819 25.4317L126.02 33.892H133.593Z" fill="#415E3A"></path><path d="M144.359 25.8623V38.6795C144.359 39.1101 144.435 39.3887 144.561 39.5914C144.688 39.7687 144.941 39.9207 145.346 40.022V40.4273H141.547V40.022C141.952 39.9207 142.205 39.7687 142.332 39.5914C142.459 39.4141 142.535 39.1101 142.535 38.6795V24.9251C142.535 24.4945 142.459 24.1905 142.332 24.0132C142.205 23.8359 141.927 23.7092 141.547 23.6079V23.2026H147.145V23.6079C146.613 23.7852 146.334 24.0385 146.334 24.4185C146.334 24.7224 146.537 25.1024 146.917 25.533L157.1 36.9317V24.9504C157.1 24.5198 157.024 24.2158 156.897 24.0385C156.77 23.8612 156.492 23.7346 156.112 23.6332V23.228H159.911V23.6332C159.531 23.7346 159.253 23.8865 159.126 24.0385C159 24.2158 158.924 24.5198 158.924 24.9504V38.7048C158.924 39.1354 159 39.4141 159.126 39.6167C159.253 39.794 159.506 39.946 159.911 40.0474V40.4526H155.403V40.0474C155.935 39.9207 156.213 39.6927 156.213 39.4141C156.213 39.1861 155.96 38.8061 155.479 38.2489L144.359 25.8623Z" fill="#415E3A"></path><path d="M173.565 22.8228C176.63 22.8228 179.113 23.6333 180.987 25.2291C182.988 26.9263 184.001 29.1554 184.001 31.9417C184.001 33.6642 183.52 35.26 182.532 36.7038C180.683 39.4395 177.694 40.8073 173.616 40.8073C170.576 40.8073 168.094 39.9968 166.219 38.4009C164.218 36.7038 163.205 34.5001 163.205 31.815C163.205 29.9913 163.686 28.3701 164.674 26.9263C165.713 25.4064 167.157 24.2919 169.031 23.5827C170.298 23.0761 171.817 22.8228 173.565 22.8228ZM173.565 24.5959C171.057 24.5959 169.056 25.3558 167.511 26.9009C166.169 28.2435 165.51 29.8646 165.51 31.7897C165.51 33.7148 166.169 35.3613 167.511 36.6785C169.031 38.2236 171.058 38.9835 173.591 38.9835C176.124 38.9835 178.15 38.2236 179.67 36.6785C181.012 35.336 181.671 33.7401 181.671 31.8657C181.671 29.8393 181.012 28.1928 179.67 26.8756C178.125 25.3811 176.098 24.6212 173.565 24.5959Z" fill="#415E3A"></path></svg>