<svg xmlns="http://www.w3.org/2000/svg" width="118" height="37" viewBox="0 0 118 37" fill="none"><g clip-path="url(#clip0_938_3739)"><path d="M16.6835 22.4151L16.794 22.243L16.9708 22.1355L17.0371 22.0709H17.1034H15.4903L15.667 22.1355L15.7775 22.243L15.888 22.3506L15.9985 22.4582L16.109 22.5227L16.2858 22.5872L16.4625 22.5227L16.6835 22.4151ZM16.9266 10.7128H12.5513L12.6618 15.3163L17.1034 15.2518L16.9266 10.7128ZM27.1798 34.3756L26.5831 33.4936L25.9202 32.6116L25.6109 32.3105L25.3015 32.0093L24.9479 31.7727L24.5944 31.6006L24.1745 31.493L23.7547 31.3855L23.3348 31.3209L22.915 31.2564L22.6056 31.1919L22.3625 31.1273L22.009 31.0628L21.6996 30.8907L21.5228 30.6541L21.3461 30.4175L21.2356 30.1163L21.1251 29.8797V29.5355V29.2558L21.0588 29.0837L20.9925 28.9762L20.9262 28.8686L20.7494 28.7611L20.3296 28.6535L20.0202 28.5459V28.718L20.1307 28.8901L20.2412 29.0622L20.3517 29.1698L20.418 29.2773L20.4843 29.3419L20.5947 29.5785L20.661 29.8151L20.7715 30.0518V30.3529L20.7052 30.7616L20.5285 31.1058L20.2191 31.407L19.9097 31.7082L19.5562 32.0093L19.1363 32.1814L19.2026 31.8802L19.2689 31.5361L19.2026 31.2994L19.1363 30.9983V30.482L19.2026 30.0087L19.3794 29.6L19.5562 29.2558L19.733 29.0837L19.7992 28.8471L19.6225 28.5029L19.512 28.0942L19.3352 28.3954L19.0921 28.632L19.1584 28.7395V28.9116V29.0192L19.0921 29.1913L18.9816 29.4925L18.7386 29.7936L18.1419 30.3099L17.6116 30.6541L17.3022 30.8262L16.9487 30.8907L16.5951 30.9552L16.2416 31.0198H15.9322L15.4461 30.9552L15.203 30.8907L14.9599 30.8262L14.8494 30.7186L14.7831 30.6541L15.0925 30.3099L15.5124 29.9657L15.8217 29.4494L16.0648 28.9332L16.1753 28.7611L16.3521 28.589L16.5951 28.4169L16.8382 28.2448L17.3243 28.0727L17.8547 27.9651H18.164L18.4734 28.0297H18.7165L19.0258 27.9651L19.2026 27.793L19.2689 27.6209L19.3352 27.4489V27.2122V27.1047L19.4015 27.0401H19.3352L19.0258 27.1047H18.7165L18.4071 27.0401L18.164 26.9756L17.921 26.868L17.6779 26.6959L17.4348 26.5238L17.258 26.2872L17.1476 26.0506L17.0371 25.814L16.9708 25.3407L16.8603 24.8675L16.6172 24.5663L16.3079 24.3297L16.1974 24.2221L16.0869 24.05V23.8779L16.0206 23.8134V23.6413V23.4692L15.8438 23.6413L15.667 23.8134V23.9209V24.0285V24.1361L15.7333 24.2436L15.9101 24.4802L16.0206 24.6523L16.1311 24.8244L16.1974 25.0611V25.2977V25.5343L16.0869 25.7064L15.9764 25.8785L15.7996 25.9861L15.6228 26.1582H15.5124L15.4019 26.2657L15.4682 26.0936V25.9215V25.814L15.4019 25.6419L15.2914 25.4052L15.1809 25.2332L15.1146 25.0611V24.8244V24.5878L15.1809 24.4157L15.2914 24.2436L15.4019 24.0715L15.4682 23.8994L15.5344 23.7273L15.7112 23.4907L15.888 23.2541L15.9543 23.1895V23.082V22.9099L15.8438 22.7378L15.667 22.4366L15.3577 22.0279H14.2749L14.3854 22.0925L14.4517 22.157L14.761 22.2215L15.0704 22.3291L15.0041 22.4366L14.8273 22.6087L14.6506 22.7163L14.4738 22.8239L14.1202 22.9314L13.7004 22.9959H13.3468L12.927 22.8884L12.7502 22.7808L12.5734 22.6733L12.4629 22.5657L12.3966 22.3936L12.2198 22.3291L12.0431 22.2645L12.1094 22.4366L12.1756 22.6733L12.2419 22.9744L12.3524 23.2756L12.4629 23.3832L12.5734 23.4477L12.7502 23.5122L12.927 23.5768L13.2805 23.6413L13.5899 23.7488L13.8992 23.9209L14.1423 24.1576L14.4959 24.7384L14.9157 25.3192L14.4959 25.4268L14.1423 25.4913H13.8992H13.6562L13.4794 25.4268L13.3026 25.3622L13.1258 25.2547L12.9491 25.1471L12.8386 24.975L12.7281 24.8029L12.6176 24.6308L12.5513 24.3942V24.05V23.7058L12.3745 23.5337L12.1315 23.2971L12.0652 23.1895L11.9989 23.082V23.0175V22.9529L11.9326 22.8454L11.9989 22.7378L11.8221 22.8454L11.7116 22.9529L11.6453 23.125L11.7116 23.2971L11.8221 23.4692L11.8884 23.6413L11.9547 23.9425V24.2866L11.8442 24.3942L11.7337 24.5018L11.6232 24.6093L11.5127 24.6739H11.4022L11.2918 24.7384L11.358 24.6308L11.4243 24.5233V24.4157V24.3082L11.2476 24.007V23.6628L11.358 23.3616L11.5348 23.125L11.6011 23.0175L11.6674 22.9099L11.7779 22.7378L11.8884 22.6302L11.9989 22.5227V22.3506L11.9326 22.4582L11.8221 22.5227L11.579 22.6948L11.3359 22.8669L11.0266 22.9314L10.7835 22.9959L10.673 23.0605H10.5625L10.4521 23.125L10.3416 23.1895L10.2753 23.2971V23.4692L10.4521 23.8779L10.6951 24.3512V24.7599L10.5846 25.2332L10.3416 25.7064L10.0322 26.0506L9.61235 26.3518L9.1925 26.6529L8.88314 27.0616L8.64007 27.4058L8.52958 27.3413L8.46329 27.2768L8.3528 27.1047L8.28651 26.9326L8.17602 26.5238L8.10973 26.2872V25.9861V25.6419V25.3407L8.22022 25.0395L8.46329 24.5233L8.81684 23.9425L9.05992 23.7058L9.30299 23.5337L9.61235 23.4262H9.85542L10.0322 23.1895L10.2753 22.9529L9.96591 22.8884H9.61235L9.36928 22.8239H9.05992H8.81684L8.57378 22.8884L8.3307 22.9959L8.15392 23.168L7.97715 23.3401L7.86666 23.5768L7.55729 24.05L7.24793 24.4587L7.00486 24.6308L6.82808 24.8029L6.58501 24.9105L6.27565 25.018L5.74531 25.1901L5.21497 25.2547L4.68464 25.3622L4.1543 25.5343L4.08801 25.2332V24.932L4.1543 24.5878L4.22059 24.2866L4.28688 23.9425L4.46366 23.6413L4.64044 23.3401L4.88351 23.1035L5.12658 22.9314L5.43595 22.7593L5.74531 22.6518L6.09887 22.5442L6.40823 22.4797L6.76179 22.5442L7.24793 22.6518L7.73407 22.8239L8.08763 22.7163L8.44119 22.5442L8.75056 22.4797H9.1704H9.59025L9.76703 22.5872L9.65655 22.2861L9.54606 22.0494H4.81722L5.12658 4.73257L10.0985 6.47502L10.2753 22.0494H9.85542L9.92171 22.2861L10.0985 22.5872L10.209 22.6518L10.3858 22.7163L10.5625 22.7808H10.7393L10.8498 22.7163H10.9603L11.2034 22.6518L11.3801 22.5442L11.5569 22.4797L11.7337 22.3721L11.8442 22.2645L11.9105 22.0925H10.8277V4.7756H17.7663L18.5397 22.0279L18.9595 22.2645L19.3131 22.4366L19.733 22.5012L20.0865 22.5657V22.6733L20.0202 22.7378L19.9539 22.9099L19.8434 23.0175L19.5341 23.1895L19.4236 23.3616L19.1805 23.4692L18.9374 23.5768L18.6281 23.6413L18.385 23.7058H17.8989L17.3022 23.6413L16.9929 23.5337L16.8161 23.4262L16.6393 23.2541L16.5288 23.082L16.2858 23.0175L16.0427 22.9099L16.109 23.2111L16.2195 23.4477L16.2858 23.6843L16.3521 23.9209L16.4625 24.093L16.573 24.2006L16.7498 24.3082L16.9266 24.4157L17.1034 24.4802H17.3464L17.8326 24.5448L18.3187 24.6523L18.6723 24.8244L19.0921 25.1256L19.5783 25.7709L20.0644 26.3518L20.1749 26.2872H20.2412L20.4843 26.1797L20.661 26.1151L20.8378 25.943L20.9041 25.7709L20.9704 25.5343L20.8599 25.2332L20.7936 24.9965L20.6831 24.6954L20.6168 24.2221L20.7273 23.7058L20.7936 23.4047L20.9041 23.168L21.0146 22.9959L21.1914 22.8239L21.6112 22.4151L22.0974 22.0064L22.3404 21.5332L22.5835 21.189H22.694L22.8045 21.2965L22.8708 21.4686L22.9813 21.6407L23.158 22.0494L23.2685 22.3506L23.3348 22.6948V23.039V23.3832L23.2685 23.7273L23.0918 24.3082L22.7382 24.9535L22.4951 25.2547L22.1858 25.4913L22.0753 25.5989H21.9648L21.788 25.6634L21.6775 25.5989L21.5007 25.943L21.2577 26.1797H21.6112H21.9648L22.3846 26.2442L22.8045 26.1797L23.158 26.0721L23.4674 25.8355L23.5337 25.7709L23.6 25.6634L23.7768 25.3192L23.8873 24.8459L23.9535 24.4372V23.964V23.4907L24.0198 23.0175V22.5442L24.0861 22.0709L24.1524 21.8343L24.2187 21.6622L24.1524 21.7268V21.7913L24.0419 21.318L23.7326 20.9093V20.6082L23.7989 20.307L23.9094 20.0704L24.1524 19.8337L24.2629 20.307L24.506 20.8233V20.9954V21.1029L24.6828 20.8663L24.9258 20.7587L25.0363 20.6942L25.1468 20.6297H25.2573L25.3678 20.5651L25.8981 20.5006H26.3843L26.8704 20.5651L27.3565 20.6297L27.8427 20.6942H28.2625H28.7487L29.1685 20.5866L29.5884 20.4145L29.9419 20.1779L30.2513 19.8337L30.4281 19.4895L30.6049 18.9733L30.7153 18.457L30.2955 17.8116L29.8094 17.2308L29.7431 16.9297L29.6768 16.693V16.3919L29.7431 16.1552L29.8094 15.9186L29.9198 15.682L30.0303 15.4454L30.2071 15.2087L30.627 16.0907L31.1131 16.9082L31.1794 17.0802V17.2523V17.489L31.1131 17.6611L31.0026 17.9622L30.8258 18.3709L30.7595 18.8872L30.6491 19.4035L30.8921 19.0593L31.0689 18.6506L31.312 18.4785L31.555 18.3709L31.8644 18.3064L32.218 18.3709L31.8644 18.7797L31.555 19.2529L31.3783 19.3605L31.1352 19.425L30.9363 19.5756H30.7153V19.6401L30.4723 20.0489L30.1629 20.4576L29.7431 20.7587L29.3232 20.9954L28.8371 21.1675H28.3067H27.8206H27.3345L26.8483 21.1029L26.4285 21.0384H25.9423L25.5225 21.1029H25.412L25.3015 21.1675H25.2352L25.1247 21.232L24.9479 21.3396L24.8374 21.4471L24.6607 21.7913L24.5502 22.2L24.4839 22.6733L24.4176 23.082L24.3513 23.5552V24.0285L24.285 24.2651V24.5663L24.4618 24.2651L24.7712 24.0285L25.0805 23.7919L25.4341 23.6198L25.9644 23.4477L26.561 23.2756L27.1577 23.1035L27.7543 22.8669L27.8206 23.2111L27.8869 23.5552L27.8206 23.8994L27.7543 24.2436L27.688 24.5878L27.5775 24.932L27.4007 25.2762L27.1577 25.5773L26.9146 25.814L26.6052 25.9861L26.2959 26.1582L25.9423 26.2657L25.5888 26.3302L25.1689 26.3948L24.5723 26.2227L23.9756 26.1151L23.4895 26.3518L23.0034 26.5884L22.8266 26.6529H22.5835L22.473 26.7175H22.4067L22.0974 26.6529L21.9206 26.5454L22.0311 26.8465L22.2079 27.1477L22.3846 27.2552L22.4951 27.3198H22.6719H22.8487L23.158 27.2122L23.5116 27.1477H23.7547L24.064 27.2122L24.3734 27.2768L24.6165 27.3843L24.8595 27.6209L25.0363 27.8576L25.1026 28.1587L25.2131 28.3954V28.632L25.2794 28.8041L25.0363 28.632L24.8595 28.5244L24.6828 28.4599H24.4397H24.1303L23.821 28.5244H23.5116L23.2022 28.4599L22.9592 28.2878L22.7824 28.1802L22.6056 27.9436L22.4288 27.707L22.2521 27.5994L22.009 27.4273L21.7659 27.0832L21.6554 26.782L21.5449 26.6744L21.4344 26.5669H21.2577H20.9925L20.6389 26.6314L20.1086 26.739L19.9318 26.8465L19.6888 26.9111V26.9756V27.4489L19.755 27.793L19.8213 28.0942L19.9318 28.2663L20.0423 28.3738L20.1528 28.4384L20.5064 28.5029L20.9262 28.6105L21.1693 28.7826L21.3461 28.8901L21.6554 28.9977L21.8985 29.1052L22.1416 29.2128L22.3846 29.4494L22.5614 29.6861L22.6277 29.9872L22.694 30.2884V30.5896L22.7603 30.6541V30.7186L23.4232 30.4175L24.1524 30.0733L24.5723 30.1378H24.8816L25.412 30.0733L25.8981 29.9657L26.3843 29.7936L26.8041 29.557L27.1577 29.3849L27.6438 28.9762L27.8869 28.8041L28.0637 28.5675L28.1742 28.3954V28.2233L27.8206 28.1157L27.224 28.0082L27.8869 27.4919L28.4835 26.9111L29.0138 26.2657L29.5442 25.6204L30.0303 24.9105L30.5165 24.2006L30.9363 23.4907L31.2899 22.7378L31.6434 21.9204L31.9528 21.1675L32.1959 20.35L32.4389 19.5326L32.6157 18.6506L32.7262 17.7686L32.7925 16.8866V16.0047V15.1872L32.7262 14.3698L32.6157 13.5523L32.5052 12.7994L32.3285 12.0465L32.0854 11.2936L31.8423 10.5407L31.533 9.83083L31.2236 9.12094L30.87 8.41106L30.4502 7.70118L30.0303 7.05583L29.5442 6.47502L29.058 5.82967L28.5719 5.24885L28.0416 4.73257L27.4449 4.21629L26.8483 3.70001L26.2517 3.22676L25.5888 2.81804L24.9258 2.40932L24.2629 2.0006L23.5337 1.65641L22.8045 1.31222L22.0311 1.0756L21.3019 0.774434L20.5285 0.602341L19.755 0.430247L18.9153 0.258153L18.0756 0.150595L17.3022 0.0860596H16.4625H15.5565L14.7831 0.150595L13.9434 0.258153L13.17 0.430247L12.3303 0.602341L11.5569 0.774434L10.8277 1.0756L10.0543 1.31222L9.32508 1.65641L8.59587 2.0006L7.93295 2.40932L7.27003 2.81804L6.60711 3.22676L6.01048 3.70001L5.41385 4.21629L4.88351 4.73257L4.28688 5.24885L3.80074 5.82967L3.3146 6.47502L2.82846 7.05583L2.4086 7.70118L2.05505 8.41106L1.6352 9.12094L1.32583 9.83083L1.01647 10.5407L0.7734 11.2936L0.530327 12.0465L0.353551 12.7994L0.243064 13.5523L0.132577 14.3698L0.0662842 15.1872V16.0047V16.8221L0.132577 17.575L0.243064 18.3925L0.353551 19.1454L0.530327 19.8983L0.707107 20.6082L0.950179 21.3611L1.25954 22.0709L1.56891 22.7808L1.92246 23.4262L2.27602 24.0715L2.69587 24.7169L3.11572 25.3622L3.60186 25.943L4.08801 26.5238L4.61834 27.0401L5.14868 27.5564L5.67902 28.0727L6.27565 28.5459L6.93857 29.0192L7.5352 29.4279L8.19812 29.7721L8.86104 30.1808L9.59025 30.482L10.3195 30.7832L11.0487 31.0843L11.8221 31.3209L12.5513 31.493L13.3247 31.6651L14.1644 31.7727L14.9378 31.8802L15.7112 31.9448L15.8217 32.0093L15.888 32.1169L15.9985 32.289L16.0648 32.4611L15.9985 32.6332L15.9322 32.7407L15.7554 32.9773L15.5786 33.3215L15.5124 33.4936L15.4461 33.7302L15.3356 33.9669L15.2251 34.268V34.6122L15.2914 34.9134L15.4682 35.15L15.6449 35.3866L15.8217 35.5587L16.1311 35.7308L16.3742 35.9029L16.6835 36.0105L16.794 35.5372V35.064V34.8273L16.7277 34.5907L16.6614 34.3541L16.4846 34.182L16.3079 34.0099L15.9985 33.8378L15.9322 33.7302L15.8217 33.6227V33.5151V33.343L15.9985 33.1064L16.1753 32.8698L16.2416 33.1064L16.4183 33.4076L16.5951 33.8163L16.7719 33.9884L17.1255 34.1605L17.4348 34.4616L17.5453 34.9349L17.6116 35.4512L17.8547 35.7523L18.0977 36.0965L18.4513 36.3977L18.8712 36.6343L19.291 36.8064L19.7109 36.914L20.1307 36.9785H20.4843L21.0809 36.8709L21.6112 36.6989L21.9648 36.3977L22.2742 36.1611L21.9648 36.0965L21.6112 35.9244L21.2577 35.6878L21.0146 35.5157L20.5285 34.9994L20.0423 34.5262L19.7992 34.3541L19.5562 34.2465L19.3131 34.139L19.0037 34.0744L18.4734 33.9669L17.9431 34.0314H17.6337L17.3906 33.9669L17.1476 33.8593L16.9708 33.7518L16.794 33.5797L16.6172 33.4076L16.5067 33.1709L16.4404 32.8698L16.2637 32.5686L16.1532 32.2675L16.4625 32.375H16.7719L16.8824 32.6116L17.1255 32.7837L17.3685 32.8913L17.6779 32.9558L18.3408 33.0204L18.9374 32.9558L19.1805 33.3646L19.5341 33.6657L19.9539 33.9669L20.3738 34.2035L20.6168 33.5582L20.7936 32.9128L20.8599 32.5686L20.7936 32.2244L20.7273 31.8802L20.6168 31.5361V31.4715L20.9262 31.364L21.1693 31.2994L21.4123 31.4715L21.6554 31.6436L21.8322 31.8157L21.9427 32.0523V32.8052L22.009 33.5582L22.1195 33.8593L22.23 34.1605L22.3404 34.4616L22.5172 34.7628L23.0034 35.2361L23.5337 35.7093L24.064 36.118L24.727 36.4192L25.3236 36.6558L25.9202 36.7204H26.3401H26.8262L27.3124 36.6558L27.7322 36.5483L28.3288 36.2471L28.8592 35.9459L28.6161 35.8814L28.373 35.7738L28.13 35.6018L27.8869 35.4297L27.4007 34.9564L27.1798 34.3756ZM16.6393 31.8802L16.5288 31.9448H16.4183L16.3079 31.8802L16.2416 31.8157H16.3521H16.4625H16.573H16.7498L16.6835 31.8802H16.6393ZM17.1034 16.0047L12.6618 16.1122L12.7281 18.1558L12.9712 18.3925L13.1479 18.6936L13.2584 19.0378L13.3247 19.4465L13.2584 19.7477L13.1479 20.0919L13.0816 20.264L12.9712 20.4361L12.8607 20.5436L12.7502 20.6082V20.8448H13.1037L13.3468 20.7802L13.5899 20.6082L13.7004 20.4361L13.7667 20.1994L13.833 19.8552L13.9434 19.5541L14.1202 19.3175L14.4296 19.0808L15.0262 18.7797L15.5565 18.4355L15.7333 18.7797V19.1238V19.3605V19.5326L15.5565 19.9413L15.3135 20.2425L14.9599 20.4791L14.6064 20.5866H14.297H13.9876L13.7446 20.6942L13.6341 20.8018H17.2801L17.1034 16.0047ZM8.66216 21.8988H8.59587H8.66216ZM5.61272 21.318L7.04905 21.6192L6.80598 21.275L6.6955 20.9308V20.6942V20.4361L6.87228 20.5436L6.98276 20.6512L7.15954 20.7587H7.40261H7.71198L7.95505 20.6942H8.19812L8.50748 20.8018L8.57378 20.8663L8.68426 20.9308V17.2523L5.63482 16.5425V21.318H5.61272ZM5.61272 15.8326L8.66216 16.5855V11.982L5.61272 11.2291V15.8326ZM16.6835 5.50699L12.485 5.57152L12.5513 10.0029H16.8603L16.6835 5.50699ZM5.61272 10.4762L8.66216 11.3582V7.09885L5.61272 6.04478V10.4762ZM12.264 26.5023H12.1977L12.1315 26.4378L11.9547 26.3302L11.7116 26.2657L12.021 26.1582L12.264 26.0506H12.4408L12.5513 26.1151L12.6618 26.1797L12.7723 26.2872L12.9491 26.5238L13.1258 26.6959L13.3026 26.8035L13.5457 26.9756L13.7888 27.0401L14.0981 27.1047L14.3412 27.0401L14.5843 26.9326L14.8273 26.825L15.0041 26.6529L15.1146 26.5454L15.2251 26.4808H14.982H14.8052L14.6285 26.4163L14.4517 26.3087L14.2749 26.1366L14.0981 25.9646L13.9213 25.7925L13.6783 25.7279L13.4352 25.6634L13.1921 25.7279L12.9491 25.7925L12.706 25.857H12.4629H12.2861L11.9326 26.0291L11.6232 26.1366H11.5127H11.3359L11.2255 26.0721L11.0487 25.9646L10.8719 25.7279L10.6288 25.4913L10.3858 25.1901L10.3195 24.9535L10.2532 25.1901L10.3195 25.3622V25.5343L10.43 25.7064L10.5404 25.8785L10.6067 25.9861L10.673 26.1582L10.6067 26.3948L10.4962 26.5669L10.3195 26.6744L10.0764 26.782L9.83333 26.8895L9.59025 27.2337L9.34718 27.6425L9.2367 28.0512L9.1704 28.4599L9.28089 28.9762L9.39138 29.4494L9.28089 29.9227V30.2669H9.34718H9.45767L9.63445 30.2023L9.81123 30.1378L10.1648 29.9012L10.4079 29.7936L10.5846 29.557L10.8277 29.3204L11.0045 29.0837L11.115 28.8471L11.2918 28.3308L11.4022 27.6855V27.3843L11.3359 27.0832L11.2255 26.8465L11.0487 26.739V26.4378V26.1366L11.2918 26.3087L11.6011 26.4808L11.8442 26.5884L12.021 26.6959L12.1977 26.868L12.3082 27.0401L12.3745 27.2768L12.4408 27.5134V27.6855L12.3745 27.9866L12.264 28.4599L12.1977 28.9762V29.2128L12.264 29.4494L12.3745 29.6861L12.485 29.9227L13.0816 30.7401L13.6783 31.5576L13.9213 31.3855L14.1644 31.1488L14.3412 30.9122L14.4517 30.6111L14.6285 30.3099L14.7389 30.0087V29.7076V29.4709V29.1698L14.6285 28.8686L14.518 28.632L14.3412 28.3308L14.0981 28.1587L13.855 27.9221L13.3247 27.75L12.8386 27.5134L12.6618 27.1692L12.485 26.7605L12.3745 26.6529L12.264 26.5023Z" fill="white"></path><path d="M48.2606 9.61569H41.8303V13.0791C41.8303 13.3157 41.8745 13.4663 41.9408 13.5738C42.0071 13.6814 42.1618 13.7459 42.3827 13.8105V14.0471H40.0183V13.8105C40.2393 13.7459 40.394 13.6814 40.4603 13.5738C40.5266 13.4663 40.5707 13.3157 40.5707 13.0791V5.50696C40.5707 5.27034 40.5266 5.09824 40.4603 5.0122C40.394 4.92615 40.2393 4.8401 40.0183 4.77557V4.53894H42.3827V4.77557C42.1618 4.8401 42.0071 4.90464 41.9408 5.0122C41.8745 5.09824 41.8303 5.27034 41.8303 5.50696V8.69068H48.2606V5.50696C48.2606 5.27034 48.2164 5.09824 48.1501 5.0122C48.0839 4.92615 47.9292 4.8401 47.7082 4.77557V4.53894H50.0726V4.77557C49.8516 4.8401 49.697 4.90464 49.6307 5.0122C49.5644 5.11975 49.5202 5.27034 49.5202 5.50696V13.0791C49.5202 13.3157 49.5644 13.4663 49.6307 13.5738C49.697 13.6814 49.8516 13.7459 50.0726 13.8105V14.0471H47.7082V13.8105C47.9292 13.7459 48.0839 13.6814 48.1501 13.5738C48.2164 13.4663 48.2606 13.3157 48.2606 13.0791V9.61569Z" fill="white"></path><path d="M57.7625 4.34534C59.4861 4.34534 60.9004 4.77557 61.961 5.65755C63.088 6.58255 63.6625 7.80871 63.6625 9.35755C63.6625 10.3041 63.3753 11.186 62.8228 11.982C61.7843 13.4878 60.1049 14.2407 57.7846 14.2407C56.061 14.2407 54.6689 13.8105 53.6082 12.9285C52.4813 11.982 51.9067 10.7773 51.9067 9.31452C51.9067 8.32499 52.1719 7.4215 52.7243 6.62557C53.2989 5.78662 54.1386 5.16278 55.1772 4.79708C55.9064 4.49592 56.7682 4.36685 57.7625 4.34534ZM57.7625 5.33487C56.3483 5.33487 55.1992 5.7651 54.3374 6.60406C53.5861 7.33545 53.2105 8.23894 53.2105 9.29301C53.2105 10.3471 53.5861 11.2506 54.3374 11.982C55.1992 12.8209 56.3483 13.2512 57.7625 13.2512C59.1768 13.2512 60.3258 12.8209 61.1876 11.982C61.9389 11.2506 62.3146 10.3686 62.3146 9.33603C62.3146 8.21743 61.9389 7.31394 61.1876 6.60406C60.3479 5.7651 59.1989 5.35638 57.7625 5.33487Z" fill="white"></path><path d="M69.8056 5.52846V13.079C69.8056 13.3157 69.8498 13.4663 69.9161 13.5738C69.9824 13.6814 70.137 13.7459 70.358 13.8104V14.0471H67.9936V13.8104C68.2146 13.7459 68.3693 13.6814 68.4356 13.5738C68.5018 13.4663 68.546 13.3157 68.546 13.079V5.52846H65.364C65.1209 5.52846 64.9442 5.57149 64.8558 5.63602C64.7674 5.70056 64.679 5.85114 64.6127 6.06626H64.3696V4.06567H64.6127C64.679 4.28079 64.7453 4.43137 64.8558 4.49591C64.9442 4.56044 65.1209 4.60346 65.364 4.60346H72.9434C73.1865 4.60346 73.3633 4.56044 73.4517 4.49591C73.54 4.43137 73.6284 4.28079 73.6947 4.06567H73.9378V6.06626H73.6947C73.6284 5.85114 73.5621 5.70056 73.4517 5.63602C73.3412 5.57149 73.1865 5.52846 72.9434 5.52846H69.8056Z" fill="white"></path><path d="M77.1198 9.59418V13.1221H83.1303C83.3734 13.1221 83.5502 13.0791 83.6386 13.0145C83.7491 12.95 83.8154 12.7994 83.8595 12.5843H84.1026V14.5849H83.8595C83.8154 14.3698 83.727 14.2192 83.6386 14.1546C83.5502 14.0901 83.3734 14.0471 83.1303 14.0471H75.3079V13.8105C75.5288 13.7459 75.6835 13.6814 75.7498 13.5738C75.8161 13.4663 75.8603 13.3157 75.8603 13.0791V5.50697C75.8603 5.27035 75.8161 5.09825 75.7498 5.01221C75.6835 4.92616 75.5288 4.84011 75.3079 4.77558V4.53895H83.0861C83.3292 4.53895 83.506 4.49593 83.5944 4.43139C83.6828 4.36686 83.7712 4.21628 83.8375 4.00116H84.0805V6.00174H83.8375C83.7712 5.78662 83.7049 5.63604 83.5944 5.57151C83.506 5.50697 83.3292 5.46395 83.0861 5.46395H77.1198V8.66918H80.9206C81.1637 8.66918 81.3404 8.62616 81.4288 8.56162C81.5172 8.49709 81.6056 8.34651 81.6719 8.13139H81.915V10.132H81.6719C81.6056 9.91686 81.5393 9.76628 81.4288 9.70174C81.3184 9.63721 81.1637 9.59418 80.9206 9.59418H77.1198Z" fill="white"></path><path d="M87.7486 13.1221H93.6928C93.9359 13.1221 94.1127 13.0791 94.2011 13.0145C94.3115 12.95 94.3778 12.7994 94.4441 12.5843H94.6872V14.5849H94.4441C94.3778 14.3698 94.3115 14.2192 94.2011 14.1546C94.0906 14.0901 93.9359 14.0471 93.6928 14.0471H85.9587V13.8105C86.1797 13.7459 86.3344 13.6814 86.4007 13.5738C86.467 13.4663 86.5112 13.3157 86.5112 13.0791V5.50696C86.5112 5.27034 86.467 5.09824 86.4007 5.0122C86.3344 4.92615 86.1797 4.8401 85.9587 4.77557V4.53894H88.3232V4.77557C88.1022 4.8401 87.9475 4.90464 87.8812 5.0122C87.8149 5.09824 87.7707 5.27034 87.7707 5.50696V13.1221H87.7486Z" fill="white"></path><path d="M51.4206 18.6506L50.1831 20.8448L49.9401 20.7157C50.0285 20.4576 50.0948 20.307 50.0948 20.2424C50.0948 20.0704 49.8738 19.8983 49.4539 19.6831C48.2828 19.1454 47.0453 18.8872 45.7416 18.8872C44.6588 18.8872 43.7307 19.0808 42.9352 19.468C42.5595 19.6616 42.2502 19.8983 42.0292 20.2209C41.8082 20.5221 41.6978 20.8448 41.6978 21.189C41.6978 21.4686 41.7861 21.7268 41.9629 21.9849C42.1397 22.243 42.3607 22.4151 42.6479 22.5442C42.9573 22.6948 43.333 22.7808 43.7528 22.8454C44.1727 22.8884 44.8798 22.9314 45.83 22.9744C47.1558 23.0174 48.106 23.082 48.6805 23.1465C49.255 23.2326 49.7191 23.3616 50.0948 23.5768C51.0891 24.1145 51.5753 24.932 51.5753 26.0291C51.5753 27.0831 51.1333 27.9221 50.2273 28.589C49.233 29.3419 47.8629 29.7076 46.1393 29.7076C45.1449 29.7076 44.261 29.6 43.5097 29.4064C42.7584 29.2128 41.8745 28.8471 40.8359 28.3093C40.5487 28.1802 40.3719 28.1157 40.3277 28.1157C40.2393 28.1157 40.1067 28.2233 39.93 28.4169L39.6869 28.2663L40.9906 26.1366L41.2337 26.2657C41.1232 26.4808 41.079 26.6529 41.079 26.7175C41.079 26.8895 41.4547 27.1692 42.1839 27.5564C42.8468 27.9006 43.4876 28.1372 44.1064 28.2878C44.7251 28.4384 45.388 28.5029 46.1172 28.5029C47.5757 28.5029 48.7026 28.1802 49.4539 27.5564C49.9622 27.1477 50.2052 26.6529 50.2052 26.0721C50.2052 25.3192 49.7633 24.8029 48.9015 24.5017C48.6142 24.4157 48.327 24.3512 48.0397 24.3297C47.7303 24.3081 46.8906 24.2651 45.4985 24.2221C44.5041 24.1791 43.7307 24.1145 43.1562 24.007C42.5816 23.8994 42.0955 23.7273 41.6536 23.4907C41.2337 23.2756 40.9243 22.9529 40.6813 22.5442C40.4382 22.1355 40.3277 21.7052 40.3277 21.2105C40.3277 20.393 40.6371 19.6831 41.2558 19.1023C41.7198 18.6721 42.3607 18.3279 43.1783 18.0913C43.9959 17.8547 44.9019 17.7256 45.8742 17.7256C46.6697 17.7256 47.3989 17.8116 48.0839 17.9622C48.7689 18.1128 49.5423 18.3709 50.382 18.7581C50.5809 18.8442 50.6914 18.8872 50.7356 18.8872C50.8461 18.8872 50.9786 18.7797 51.1554 18.543L51.4206 18.6506Z" fill="white"></path><path d="M57.873 20.9738V28.5244C57.873 28.761 57.9172 28.9116 57.9835 29.0192C58.0497 29.1267 58.2044 29.1913 58.4254 29.2558V29.4924H56.061V29.2558C56.282 29.1913 56.4366 29.1267 56.5029 29.0192C56.5692 28.9116 56.6134 28.761 56.6134 28.5244V20.9738H53.4314C53.1883 20.9738 53.0115 21.0169 52.9232 21.0814C52.8348 21.1459 52.7464 21.2965 52.6801 21.5116H52.437V19.511H52.6801C52.7464 19.7262 52.8127 19.8767 52.9232 19.9413C53.0115 20.0058 53.1883 20.0488 53.4314 20.0488H61.0108C61.2539 20.0488 61.4306 20.0058 61.519 19.9413C61.6074 19.8767 61.6958 19.7262 61.7621 19.511H62.0052V21.5116H61.7621C61.6958 21.2965 61.6295 21.1459 61.519 21.0814C61.4085 21.0169 61.2539 20.9738 61.0108 20.9738H57.873Z" fill="white"></path><path d="M65.1872 25.061V28.5674H71.1977C71.4408 28.5674 71.6176 28.5244 71.706 28.4599C71.8164 28.3953 71.8827 28.2448 71.9269 28.0296H72.17V30.0302H71.9269C71.8827 29.8151 71.7943 29.6645 71.706 29.6C71.6176 29.5355 71.4408 29.4924 71.1977 29.4924H63.3752V29.2558C63.5962 29.1913 63.7509 29.1267 63.8172 29.0192C63.8835 28.9116 63.9277 28.761 63.9277 28.5244V20.9523C63.9277 20.7157 63.8835 20.5436 63.8172 20.4576C63.7509 20.3715 63.5962 20.2855 63.3752 20.2209V20.0058H71.1535C71.3966 20.0058 71.5734 19.9628 71.6618 19.8983C71.7502 19.8337 71.8385 19.6831 71.9048 19.468H72.1479V21.4686H71.9048C71.8385 21.2535 71.7722 21.1029 71.6618 21.0384C71.5734 20.9738 71.3966 20.9308 71.1535 20.9308H65.1872V24.136H68.988C69.2311 24.136 69.4078 24.093 69.4962 24.0285C69.5846 23.964 69.673 23.8134 69.7393 23.5983H69.9824V25.5988H69.7393C69.673 25.3837 69.6067 25.2331 69.4962 25.1686C69.3857 25.1041 69.2311 25.061 68.988 25.061H65.1872Z" fill="white"></path><path d="M75.8161 25.0395V28.5244C75.8161 28.761 75.8603 28.9116 75.9266 29.0192C75.9929 29.1267 76.1476 29.1913 76.3686 29.2558V29.4924H74.0042V29.2558C74.2251 29.1913 74.3798 29.1267 74.4461 29.0192C74.5124 28.9116 74.5566 28.761 74.5566 28.5244V20.9523C74.5566 20.7157 74.5124 20.5436 74.4461 20.4576C74.3798 20.3715 74.2251 20.2855 74.0042 20.2209V20.0058H81.915C82.1581 20.0058 82.3128 19.9628 82.4233 19.8983C82.5337 19.8337 82.6 19.6831 82.6663 19.468H82.9094V21.4686H82.6663C82.6 21.2535 82.5337 21.1029 82.4233 21.0384C82.3128 20.9738 82.1581 20.9308 81.915 20.9308H75.794V24.1145H79.7716C80.0146 24.1145 80.1914 24.0715 80.2798 24.007C80.3682 23.9424 80.4566 23.7919 80.5229 23.5767H80.7659V25.5773H80.5229C80.4566 25.3622 80.3903 25.2116 80.2798 25.1471C80.1914 25.0826 80.0146 25.0395 79.7716 25.0395H75.8161Z" fill="white"></path><path d="M89.8922 26.825H84.7877L84.0585 28.4168C83.9701 28.6105 83.9259 28.761 83.9259 28.8471C83.9259 29.0407 84.0806 29.1698 84.3678 29.2558V29.4924H81.9592V29.2558C82.1802 29.2128 82.3791 29.1267 82.5117 28.9977C82.6442 28.8686 82.7989 28.5889 82.9757 28.2017L86.2019 21.3825C86.3787 20.9953 86.4671 20.7372 86.4671 20.6081C86.4671 20.4145 86.3124 20.2855 86.0251 20.2424V20.0058H88.8536V20.2424C88.5663 20.307 88.4117 20.436 88.4117 20.6081C88.4117 20.7157 88.5221 21.0168 88.7652 21.5116L91.8589 28.0727C92.0577 28.5029 92.2566 28.8041 92.3892 28.9762C92.5439 29.1482 92.7206 29.2343 92.9637 29.2773V29.5139H90.4225V29.2558C90.6877 29.1913 90.8203 29.1052 90.8203 28.9762C90.8203 28.9116 90.754 28.718 90.6214 28.4168L89.8922 26.825ZM89.4944 25.9L87.3731 21.2535L85.2296 25.9H89.4944Z" fill="white"></path><path d="M95.5711 21.4901V28.5244C95.5711 28.761 95.6153 28.9116 95.6816 29.0192C95.7479 29.1267 95.9026 29.1913 96.1236 29.2558V29.4924H93.9801V29.2558C94.2011 29.1913 94.3558 29.1267 94.4221 29.0192C94.4883 28.9116 94.5325 28.761 94.5325 28.5244V20.9523C94.5325 20.7157 94.4883 20.5436 94.4221 20.4575C94.3558 20.3715 94.2011 20.2854 93.9801 20.2209V20.0058H97.14V20.2424C96.8307 20.3285 96.6981 20.4791 96.6981 20.6727C96.6981 20.8448 96.8086 21.0384 97.0295 21.275L102.775 27.5349V20.9523C102.775 20.7157 102.731 20.5436 102.664 20.4575C102.598 20.3715 102.443 20.2854 102.222 20.2209V20.0058H104.366V20.2424C104.145 20.307 103.99 20.3715 103.924 20.4791C103.858 20.5651 103.813 20.7372 103.813 20.9738V28.5459C103.813 28.7825 103.858 28.9331 103.924 29.0407C103.99 29.1482 104.145 29.2128 104.366 29.2773V29.5139H101.825V29.2558C102.134 29.1913 102.267 29.0622 102.267 28.9116C102.267 28.7825 102.134 28.5889 101.847 28.2663L95.5711 21.4901Z" fill="white"></path><path d="M112.056 19.8122C113.779 19.8122 115.194 20.2424 116.254 21.1244C117.381 22.0494 117.956 23.2756 117.956 24.8244C117.956 25.7709 117.668 26.6529 117.116 27.4488C116.077 28.9546 114.398 29.7075 112.078 29.7075C110.354 29.7075 108.962 29.2773 107.901 28.3953C106.774 27.4488 106.2 26.2442 106.2 24.7814C106.2 23.7918 106.465 22.8884 107.018 22.0924C107.592 21.2535 108.432 20.6296 109.47 20.2639C110.222 19.9628 111.083 19.8122 112.056 19.8122ZM112.056 20.7802C110.642 20.7802 109.492 21.2104 108.631 22.0494C107.879 22.7808 107.504 23.6843 107.504 24.7384C107.504 25.7924 107.879 26.6959 108.631 27.4273C109.492 28.2663 110.642 28.6965 112.056 28.6965C113.47 28.6965 114.619 28.2663 115.481 27.4273C116.232 26.6959 116.608 25.8139 116.608 24.7814C116.608 23.6628 116.232 22.7593 115.481 22.0494C114.641 21.232 113.492 20.8017 112.056 20.7802Z" fill="white"></path></g><defs><clipPath id="clip0_938_3739"><rect width="118" height="37" fill="white"></rect></clipPath></defs></svg>