<svg xmlns="http://www.w3.org/2000/svg" width="180" height="44" viewBox="0 0 180 44" fill="none"><path d="M68.8261 25.0827L67.1046 28.1812L66.7603 27.9622L66.9168 27.5553L66.9794 27.2736L66.9168 27.1171L66.7603 26.9293L66.4786 26.7102L66.0405 26.4911L65.4771 26.272L64.8511 25.9903L64.2251 25.8652L63.5678 25.646L62.9419 25.5835L62.3159 25.427H61.596L60.97 25.3643L59.9059 25.427L58.9043 25.5835L57.934 25.8652L57.089 26.2094L56.7134 26.4285L56.3691 26.7102L56.0874 26.9919L55.8683 27.2736L55.6805 27.6179L55.524 27.8996L55.3988 28.2752V28.6194V28.9637L55.4614 29.2454L55.5866 29.5271L55.7431 29.7462L55.9622 30.0279L56.15 30.247L56.4317 30.4661L56.7134 30.5913L57.4333 30.8104L58.2157 30.9356L58.7165 31.0295L59.4051 31.0921H60.1876L61.0952 31.1546L62.3785 31.2173H63.4427L64.3503 31.3111L65.0702 31.4363L65.6336 31.499L66.1344 31.6555L66.6351 31.7806L66.9794 31.9997L67.4802 32.2814L67.8871 32.6257L68.2314 33.0639L68.5131 33.5021L68.7322 33.909L68.8887 34.4097L69.0139 34.9105V35.4739V36.0373L68.9513 36.5381L68.8261 37.0076L68.607 37.5083L68.3253 37.9465L68.0436 38.3534L67.6054 38.729L67.1985 39.1359L66.6351 39.4802L66.0405 39.7932L65.4145 40.0748L64.7885 40.2627L64.006 40.4817L63.2236 40.6382L62.4411 40.7008H61.5334H60.5318L59.6242 40.6382L58.7165 40.4817L57.934 40.2627L57.089 40.0748L56.2439 39.6993L55.2423 39.2924L54.2408 38.729L53.7713 38.5099L53.5522 38.4473L53.2705 38.5725L52.9888 38.8542L52.6445 38.729L54.3973 35.693L54.7416 35.8808L54.6164 36.2564L54.5225 36.5381L54.6164 36.7259L54.898 37.0076L55.3988 37.2893L56.0874 37.7274L56.7134 38.0091L57.4333 38.2908L58.0592 38.5725L58.7165 38.729L59.4051 38.8542L60.0624 39.0107L60.7509 39.0733H61.5334H62.2533L62.9419 39.0107L63.5678 38.8542L64.1625 38.729L64.7259 38.5099L65.1954 38.2908L65.6962 38.0091L66.1344 37.7274L66.5412 37.2266L66.9168 36.7259L67.1046 36.1625L67.1985 35.5991L67.1046 35.2548L67.042 34.9105L66.9168 34.5349L66.6977 34.2532L66.4786 33.9715L66.1344 33.7838L65.7588 33.5647L65.3519 33.4082L64.7885 33.2204L64.1625 33.1265H63.7243L63.0045 33.0639L61.9716 33.0013H60.6883L59.6868 32.9387L58.8417 32.8448L58.0592 32.7822L57.4333 32.6257L56.8699 32.5005L56.3065 32.344L55.8057 32.1562L55.3988 31.9371L54.9606 31.6555L54.6164 31.3738L54.2408 31.0295L53.9591 30.5913L53.7713 30.1531L53.6148 29.6836L53.5522 29.1828L53.4896 28.6821L53.5522 28.2752L53.6148 27.837L53.6774 27.4927L53.8339 27.0545L54.053 26.7102L54.2408 26.3659L54.4599 25.9903L54.8355 25.7087L55.3049 25.3018L55.9622 24.8636L56.6508 24.5819L57.4333 24.3002L58.2783 24.0185L59.186 23.8933L60.1876 23.7994L61.1891 23.7368L61.9716 23.7994H62.7228L63.5052 23.9559L64.2251 24.0811L64.9137 24.3002L65.6962 24.5193L66.5412 24.8636L67.3863 25.2078L67.668 25.3643H67.8871L68.1688 25.2078L68.4505 24.8636L68.8261 25.0827Z" fill="white"></path><path d="M79.7501 25.5837V39.011V39.4178L79.9066 39.6995L80.1257 39.9186L80.47 40.0751V40.4194H77.0897V40.0751L77.434 39.9186L77.7157 39.6995L77.7783 39.4178L77.8409 39.011V25.5837H72.3323L71.8628 25.6463L71.5811 25.8028L71.4246 25.9906L71.2994 26.3662H70.9238V23.2363H71.2994L71.4246 23.6745L71.5811 23.8936L71.8628 24.0188H72.3323H85.29H85.6969L85.9786 23.8936L86.1977 23.6745L86.3229 23.2363H86.6985V26.3662H86.3229L86.1977 25.9906L85.9786 25.8028L85.6969 25.6463L85.29 25.5837H79.7501Z" fill="white"></path><path d="M91.4241 32.7825V38.8545H101.878L102.316 38.7919L102.598 38.7293L102.786 38.4476L102.942 38.072H103.286V41.2019H102.942L102.786 40.7637L102.598 40.5446L102.316 40.482L101.878 40.4194H88.7324V40.0751L89.1706 39.9186L89.3584 39.6995L89.4523 39.4178L89.5149 39.011V25.4273L89.4523 25.0204L89.3584 24.7387L89.0767 24.5822L88.7324 24.457V24.0188H101.753H102.16L102.441 23.8936L102.66 23.6745L102.786 23.2363H103.161V26.3662H102.786L102.66 25.9906L102.441 25.8028L102.16 25.6463L101.753 25.5837H91.4241V31.2175H98.1221L98.6229 31.1549L98.9046 31.0923L99.0611 30.8106L99.1862 30.4664H99.6244V33.565H99.1862L99.0611 33.1268L98.9046 32.939L98.6229 32.7825H98.1221H91.4241Z" fill="white"></path><path d="M109.076 25.5837V31.1549H116.15H116.588L116.87 31.0298L117.058 30.8106L117.214 30.4664H117.558V33.5023H117.214L117.058 33.1268L116.87 32.939L116.588 32.7825H116.15H109.076V39.011V39.4178L109.233 39.6995L109.452 39.9186L109.859 40.0751V40.4194H106.416V40.0751L106.823 39.9186L107.042 39.6995L107.167 39.4178V39.011V25.4273V25.0204L107.042 24.7387L106.823 24.5822L106.416 24.457V24.0188H119.749H120.188L120.469 23.8936L120.594 23.6745L120.751 23.2363H121.158V26.3662H120.751L120.594 25.9906L120.469 25.8028L120.188 25.6463L119.749 25.5837H109.076Z" fill="white"></path><path d="M132.551 34.2533L128.889 26.1156L125.227 34.2533H132.551ZM133.24 35.8183H124.476L123.067 38.9169L122.911 39.2611L122.848 39.5428V39.6993L123.005 39.8558L123.287 39.9184L123.568 40.0749V40.4192H119.906V40.0749L120.344 39.9184L120.689 39.6368L120.97 39.1986L121.315 38.4161L127.324 25.4896L127.543 25.1453V24.8637V24.7072L127.387 24.5507L127.23 24.4881L126.949 24.4255V23.9873H130.892V24.4255L130.673 24.4881L130.454 24.6446L130.391 24.8011L130.329 24.9576L130.391 25.1766L130.548 25.5209L136.276 38.0405L136.839 39.1047L137.121 39.668L137.465 39.8871L138.028 40.1062V40.4505H134.147V40.1062L134.429 40.0436L134.648 39.8871L134.805 39.7306L134.867 39.5116L134.805 39.2299L134.585 38.7917L133.24 35.8183Z" fill="white"></path><path d="M142.223 26.1469V39.0107L142.285 39.4176L142.379 39.6993L142.661 39.9184L143.005 40.0749V40.4192H139.75V40.0749L140.094 39.9184L140.376 39.6993L140.47 39.4176L140.532 39.0107V25.427L140.47 25.0201L140.376 24.7384L140.094 24.5819L139.75 24.4567V24.0186H144.476V24.4567L144.194 24.5193L144.069 24.6445L143.913 24.801V24.9262L144.069 25.3018L144.476 25.8652L154.304 37.3832V25.427V25.0201L154.179 24.7384L153.96 24.5819L153.522 24.4567V24.0186H156.777V24.4567L156.432 24.5819L156.213 24.7384L156.088 25.0201L155.994 25.427V39.0107L156.088 39.4176L156.213 39.6993L156.432 39.9184L156.777 40.0749V40.4192H153.021V40.0749L153.24 39.9184L153.459 39.8558L153.522 39.6993L153.615 39.5741L153.459 39.1985L153.115 38.6351L142.223 26.1469Z" fill="white"></path><path d="M169.64 25.3643L168.733 25.427L167.888 25.4895L167.105 25.7087L166.323 25.9277L165.603 26.2094L164.977 26.5537L164.413 26.9919L163.85 27.4927L163.349 27.9935L162.911 28.4942L162.629 29.0576L162.348 29.621L162.129 30.247L161.972 30.873L161.816 31.499V32.2188V32.9387L161.972 33.6586L162.129 34.2845L162.348 34.8479L162.629 35.4739L162.911 35.9747L163.349 36.5381L163.85 37.0389L164.413 37.477L164.977 37.9152L165.603 38.2595L166.323 38.6038L167.105 38.8229L167.95 38.9794L168.795 39.042L169.64 39.1046L170.548 39.042L171.393 38.9794L172.238 38.8229L173.021 38.6038L173.74 38.2595L174.366 37.9152L174.992 37.477L175.556 37.0389L175.994 36.5381L176.432 35.9747L176.714 35.4739L176.996 34.9105L177.215 34.2845L177.434 33.6586L177.496 33.0326V32.3127V31.5928L177.434 30.873L177.215 30.247L176.996 29.621L176.714 29.0576L176.432 28.4942L175.994 27.9309L175.556 27.4927L174.93 26.9293L174.304 26.4911L173.678 26.2094L173.052 25.9277L172.269 25.7087L171.424 25.4895L170.579 25.427L169.64 25.3643ZM169.64 23.7368L170.704 23.7994L171.706 23.862L172.708 24.0811L173.553 24.3002L174.398 24.6445L175.243 24.9888L175.963 25.4895L176.683 25.9903L177.402 26.7102L177.966 27.4301L178.529 28.2752L178.873 29.1202L179.155 29.9027L179.374 30.6852L179.531 31.5303V32.3753V32.9387L179.468 33.5021L179.312 34.0655L179.155 34.6288L178.999 35.1296L178.78 35.693L178.498 36.1938L178.154 36.7572L177.809 37.2579L177.371 37.7587L176.87 38.2595L176.432 38.6977L175.869 39.042L175.305 39.3863L174.742 39.7305L174.116 40.0122L173.114 40.2939L171.988 40.513L170.861 40.6695L169.672 40.7321H168.67L167.606 40.5756L166.698 40.4191L165.791 40.1374L164.945 39.8558L164.163 39.4176L163.443 38.9794L162.723 38.416L162.003 37.79L161.44 37.0076L160.939 36.2251L160.501 35.3174L160.219 34.5975L160 33.815L159.844 33.0326V32.1875V31.6241L159.906 30.9981L160.063 30.4348L160.219 29.8714L160.376 29.308L160.595 28.7446L160.877 28.2439L161.221 27.7431L161.565 27.1797L162.003 26.6789L162.442 26.1781L162.942 25.74L163.506 25.3957L164.069 25.0514L164.632 24.7697L165.258 24.488L166.26 24.1437L167.324 23.9246L168.451 23.7681L169.64 23.7368Z" fill="white"></path><path d="M172.27 10.5287V14.4724H179.062H179.344L179.5 14.4098L179.657 14.2533L179.719 13.9716H180.001V15.9434H179.688L179.625 15.7244L179.469 15.5679L179.312 15.5052L179.031 15.4427H170.486V15.2236L170.768 15.161L170.924 15.0045L170.987 14.7854V14.5037V5.73999V5.4583L170.924 5.23922L170.768 5.1766L170.486 5.11402V4.83232H178.905H179.187L179.406 4.76974L179.563 4.55062L179.625 4.33154H179.844V6.30339H179.625L179.563 6.08427L179.406 5.92778L179.187 5.77128H178.905H172.27V9.43328H176.652L176.934 9.37066L177.09 9.30808L177.247 9.15158L177.309 8.93247H177.591V10.9043H177.309L177.247 10.6852L177.09 10.4661L176.934 10.4035H176.652H172.27V10.5287ZM164.633 5.8652V14.5663L164.696 14.848L164.758 15.0671L164.915 15.2236L165.134 15.2862V15.5052H162.943V15.2862L163.162 15.2236L163.319 15.0671L163.475 14.848V14.5663V5.8652H159.876H159.594L159.375 6.02169L159.312 6.17819L159.25 6.39726H158.968V4.42545H159.25L159.312 4.64453L159.469 4.86361L159.625 4.92623H159.907H168.326H168.608L168.827 4.86361L168.89 4.64453L169.046 4.42545H169.265V6.39726H169.046L168.89 6.17819L168.827 6.02169L168.608 5.8652H168.326H164.633ZM148.076 6.20948V14.535L148.139 14.8167L148.201 15.0358L148.358 15.1922L148.577 15.2549V15.4739H146.542V15.2549L146.761 15.1922L146.918 15.0358L146.98 14.8167L147.043 14.535V5.77128L146.98 5.48959L146.918 5.27051L146.761 5.20793L146.542 5.14531V4.86361H149.578V5.14531H149.422L149.265 5.3018L149.203 5.36442V5.427L149.265 5.7087L149.547 6.05298L155.901 13.5334V5.77128V5.48959L155.838 5.27051L155.682 5.20793L155.4 5.14531V4.86361H157.528V5.14531L157.309 5.20793L157.09 5.27051L157.027 5.48959V5.77128V14.535V14.8167L157.09 15.0358L157.309 15.1922L157.528 15.2549V15.4739H155.056V15.2549L155.275 15.1922L155.337 15.1297L155.4 15.0671V14.9106L155.337 14.6915L155.118 14.3472L148.076 6.20948ZM141.816 11.499L139.406 6.27206L137.09 11.499H141.816ZM142.286 12.5005H136.558L135.65 14.535L135.588 14.7541L135.525 14.9106L135.588 15.0671L135.65 15.1297L135.807 15.1922L136.026 15.2549V15.4739H133.616V15.2549L133.898 15.1922L134.117 15.0358L134.336 14.7541L134.555 14.2533L138.436 5.83391L138.592 5.55221V5.39571V5.23922L138.53 5.1766L138.373 5.11402H138.217V4.83232H140.846V5.11402H140.627L140.47 5.27051L140.408 5.33309V5.39571L140.47 5.55221L140.533 5.83391L144.289 13.8777L144.633 14.5976L144.852 14.9419L145.071 15.0984L145.416 15.2549V15.4739H142.88V15.2549L143.099 15.1922L143.256 15.1297L143.319 15.0671V14.9106V14.6915L143.162 14.4098L142.286 12.5005ZM124.195 9.68365H128.514H129.297L129.86 9.62107L130.298 9.55844L130.642 9.33937L130.987 9.12029L131.268 8.77597L131.425 8.2752V7.77442V7.27365L131.206 6.83546L130.987 6.49117L130.642 6.20948L130.204 6.05298L129.766 5.89649L129.203 5.83391H128.358H124.195V9.68365V9.68365ZM124.195 10.7478V14.5663V14.848L124.351 15.0671L124.508 15.2236L124.727 15.2862V15.5052H122.536V15.2862L122.755 15.2236L122.912 15.0671L122.974 14.848L123.037 14.5663V5.80258L122.974 5.52092L122.912 5.3018L122.755 5.23922L122.536 5.1766V4.89494H128.326H129.453L130.236 5.05143L130.862 5.20793L131.425 5.48959L131.707 5.7087L131.926 5.92778L132.145 6.14689L132.301 6.42855L132.52 6.71025L132.583 7.05453L132.646 7.49272L132.708 7.837L132.646 8.46298L132.489 8.9638L132.207 9.46457L131.863 9.80885L131.425 10.1531L130.924 10.4348L130.298 10.6539L129.672 10.7165L132.364 14.8793L132.52 15.0984L132.677 15.161L132.896 15.3175H133.115V15.5366H130.642V15.3175L130.924 15.2549L131.081 15.0984L131.018 14.8793L130.799 14.5976L128.326 10.7791H124.195V10.7478ZM111.425 5.80258V11.6555V12.5632L111.488 13.1265L111.707 13.5647L111.988 13.8464L112.207 14.0655L112.489 14.222L112.771 14.3785L113.209 14.4411L114.054 14.5976L115.118 14.6602L116.245 14.5976L117.153 14.4411L117.497 14.2846L117.841 14.1281L118.123 13.9716L118.342 13.7525L118.561 13.4082L118.718 13.0639V12.5005L118.78 11.6555V5.80258L118.718 5.52092L118.655 5.36442L118.498 5.20793L118.279 5.14531V4.86361H120.408V5.14531L120.126 5.20793L119.97 5.27051L119.907 5.48959V5.77128V11.9059L119.844 12.4067V12.9074L119.782 13.2517L119.625 13.596L119.406 14.0968L119.062 14.535L118.624 14.8793L118.123 15.161L117.497 15.3801L116.777 15.5366L115.932 15.6931H115.024H114.304L113.678 15.6304L113.052 15.5679L112.552 15.4114L112.051 15.2549L111.613 15.0358L111.268 14.8167L110.987 14.535L110.768 14.3159L110.549 14.0342L110.392 13.7525L110.329 13.4708L110.173 12.751L110.11 11.9059V5.77128V5.48959L110.048 5.27051L109.891 5.20793L109.61 5.14531V4.86361H111.863V5.14531L111.581 5.20793L111.425 5.36442L111.362 5.52092V5.80258H111.425ZM105.697 11.499L103.287 6.27206L100.971 11.499H105.697ZM106.198 12.5005H100.47L99.5627 14.535L99.5001 14.7541L99.4375 14.9106L99.5001 15.0671L99.5627 15.1297L99.7192 15.1922L99.9383 15.2549V15.4739H97.5282V15.2549L97.8099 15.1922L98.029 15.0358L98.2481 14.7541L98.4672 14.2533L102.348 5.83391L102.505 5.55221V5.39571V5.23922L102.442 5.1766L102.286 5.11402H102.129V4.83232H104.758V5.11402H104.539L104.383 5.27051L104.32 5.33309V5.39571L104.383 5.55221L104.445 5.83391L108.201 13.8777L108.545 14.5976L108.765 14.9419L108.984 15.0984L109.328 15.2549V15.4739H106.761V15.2549L106.981 15.1922L107.137 15.1297L107.2 15.0671V14.9106V14.6915L107.043 14.4098L106.198 12.5005ZM94.0228 5.8652V14.5663V14.848L94.0854 15.0671L94.2418 15.2236L94.5235 15.2862V15.5052H92.27V15.2862L92.5517 15.2236L92.7082 15.0671L92.7708 14.848V14.5663V5.8652H89.234H88.9523L88.7332 6.02169L88.5768 6.17819L88.5142 6.39726H88.2325V4.42545H88.5142L88.5768 4.64453L88.7332 4.86361L88.9523 4.92623H89.234H97.6534H97.8725L98.0916 4.86361L98.2481 4.64453L98.3107 4.42545H98.5924V6.39726H98.3107L98.2481 6.17819L98.0916 6.02169L97.8725 5.8652H97.6534H94.0228ZM86.8866 5.52092L85.8224 7.55535L85.6034 7.39885L85.6659 7.11715V6.96066V6.80416L85.5094 6.64767L85.353 6.58505L85.0713 6.42855L84.2888 6.08427L83.4437 5.8652L82.6613 5.7087L81.7536 5.64608L81.0337 5.7087L80.4077 5.77128L79.8444 5.9904L79.281 6.20948L78.7802 6.49117L78.4359 6.92937L78.2794 7.14844L78.2168 7.36752L78.1542 7.58664V7.80571L78.2168 8.24391L78.3733 8.58819L78.655 8.86988L78.9993 9.08896L79.5001 9.24546L80.0008 9.40195L80.7833 9.46457H81.8475L82.6925 9.52715H83.4124L83.9758 9.58977L84.4766 9.65236L85.1965 9.80885L85.7599 10.0279L86.0415 10.247L86.3232 10.4661L86.5423 10.7478L86.7614 11.0295L86.9179 11.3112L86.9805 11.5929L87.0431 11.9372V12.2815V12.6258L86.9805 12.97L86.9179 13.2517L86.7614 13.596L86.6049 13.8777L86.3858 14.1594L86.1041 14.3785L85.8224 14.6602L85.4782 14.8793L85.1339 15.0984L84.6957 15.2549L84.2575 15.4739L83.7567 15.5366L83.2559 15.5991L82.7551 15.6617H82.1292H81.5032L80.9398 15.5991L80.3764 15.5366L79.8131 15.3801L79.3123 15.2236L78.7489 15.0045L78.1229 14.7228L77.403 14.3785L77.1213 14.222H76.9648L76.8084 14.2846L76.5893 14.5037L76.3702 14.3472L77.4969 12.3753L77.716 12.5318L77.6534 12.751L77.5908 12.97L77.6534 13.1265L77.8725 13.283L78.1542 13.5021L78.5924 13.7838L79.5001 14.1281L80.3451 14.4098L81.1902 14.5663L82.0979 14.6289L83.0055 14.5663L83.8506 14.4098L84.1949 14.2533L84.4766 14.0968L84.8209 13.9403L85.04 13.7212L85.3843 13.4395L85.6034 13.0952L85.6659 12.751L85.7285 12.3128V12.0937L85.6659 11.8746L85.6034 11.6555L85.4469 11.4364L85.2904 11.2173L85.0713 11.0608L84.7896 10.9043L84.5705 10.8417L84.1323 10.6852H83.788L83.4437 10.6226H83.0055H82.2857L81.4406 10.56L80.3138 10.4974L79.4062 10.3409L78.6863 10.1218L78.0603 9.84014L77.7786 9.68365L77.5595 9.46457L77.3404 9.24546L77.1213 8.9638L76.9648 8.6821L76.9023 8.4004L76.8397 8.05612V7.77442V7.21103L77.0588 6.71025L77.2778 6.20948L77.716 5.77128L77.9977 5.48959L78.4359 5.27051L78.9367 5.05143L79.4375 4.83232L80.0008 4.67582L80.5642 4.51933H81.1902L81.8162 4.45675L82.8803 4.51933L83.788 4.67582L84.7896 4.95752L85.8537 5.4583L86.0728 5.52092H86.2293L86.3858 5.4583L86.6049 5.23922L86.8866 5.52092ZM67.1996 10.5287V14.4724H73.9915H74.2732L74.4922 14.4098L74.6487 14.2533L74.7113 13.9716H74.9304V15.9434H74.7113L74.6487 15.7244L74.4922 15.5679L74.2732 15.5052L73.9915 15.4427H65.5095V15.2236L65.7285 15.161L65.885 15.0045L65.9476 14.7854L66.0102 14.5037V5.73999L65.9476 5.4583L65.885 5.23922L65.7285 5.1766L65.5095 5.11402V4.83232H73.8976H74.1792L74.3357 4.76974L74.4922 4.55062L74.5548 4.33154H74.8365V6.30339H74.5235L74.4609 6.08427L74.3983 5.92778L74.1792 5.77128H73.8976H67.1996V9.43328H71.5814L71.8631 9.37066L72.0822 9.30808L72.2387 9.15158L72.3013 8.93247H72.5204V10.9043H72.3013L72.2387 10.6852L72.0822 10.4661L71.8631 10.4035H71.5814H67.1996V10.5287ZM54.9617 9.68365H59.281H60.0634L60.5642 9.62107L61.0024 9.55844L61.4406 9.33937L61.7849 9.12029L62.004 8.77597L62.1605 8.2752L62.2231 7.77442L62.1605 7.27365L62.004 6.83546L61.7223 6.49117L61.378 6.20948L61.0337 6.05298L60.5955 5.89649L60.0322 5.83391H59.1871H55.0243V9.68365H54.9617ZM54.9617 10.7478V14.5663V14.848L55.0243 15.0671L55.1808 15.2236L55.4625 15.2862V15.5052H53.209V15.2862L53.4907 15.2236L53.6472 15.0671L53.7098 14.848V14.5663V5.80258V5.52092L53.6472 5.3018L53.4907 5.23922L53.209 5.1766V4.89494H59.0619H60.126L60.9711 5.05143L61.5971 5.20793L62.1605 5.48959L62.3796 5.7087L62.6613 5.92778L62.8803 6.14689L63.0368 6.42855L63.1933 6.71025L63.3498 7.05453L63.4124 7.49272V7.837V8.46298L63.1933 8.9638L62.9742 9.46457L62.63 9.80885L62.1918 10.1531L61.6284 10.4348L61.065 10.6539L60.3451 10.7165L63.0994 14.8793L63.2559 15.0984L63.4124 15.161L63.6315 15.3175H63.8506V15.5366H61.378V15.3175L61.6597 15.2549L61.7223 15.0984L61.6597 14.8793L61.4406 14.5976L59.0306 10.7791H54.9617V10.7478Z" fill="white"></path><path d="M31.7053 33.8149L31.5801 34.0653L31.674 33.9401L31.7053 33.8149Z" fill="white"></path><path d="M41.1894 31.1547L40.4069 31.2487L40.0313 31.3112L39.6557 31.3739L39.2801 31.4677L38.9045 31.6242L38.3725 31.8746L37.7778 32.1876L37.1831 32.438L36.5884 32.6571L35.6807 32.9075L34.7418 33.2205L34.2097 33.377L33.8341 33.4709L33.4272 33.7526L32.9578 33.9716L32.4883 34.222L32.3318 34.316L32.2692 34.4725L32.0501 34.9419L31.9562 35.4114L31.8623 36.4756L31.9249 37.571V38.3222V39.0734V39.7619V40.5131L26.2285 42.8292V41.9842L26.2911 40.7635V39.5116V38.4474V37.8527V37.258V36.6634V36.0687V35.6618V35.2549L26.2285 34.9419L26.0094 34.6915L25.7903 34.4411L25.5712 34.1908L25.4773 34.0656L25.1956 34.0343L24.8826 33.9404L24.2566 33.7213L23.7872 33.5022L23.3803 33.3457L23.0047 33.1266L22.6291 32.8762L22.2535 32.6258L21.8779 32.3754L21.471 32.1563L21.0955 31.9998L20.6886 31.9372L19.5931 31.7807L18.5915 31.5616L17.59 31.3112L16.5884 30.9982L15.7434 30.6853L14.9922 30.3097L14.241 29.9028L13.5524 29.3707L12.8012 28.8387L12.1753 28.244L11.8623 27.931L11.6119 27.5554L11.3928 27.1798L11.1737 26.7729L10.9546 26.0218L10.8607 25.2706L10.7981 24.5194L10.7042 23.7682L11.2989 24.2377L11.9249 24.7072L12.5509 25.1141L13.2394 25.5209L13.928 25.9278L14.554 26.3347L14.867 26.5851L15.1174 26.8355L15.3678 27.0859L15.6182 27.3989L16.1502 28.1501L16.6823 28.8387L17.277 29.5272L17.903 30.1532L18.529 30.5288L19.374 30.9044L19.7809 31.1234L20.1565 31.3426L20.2817 31.4364L21.1268 31.4677L20.9703 31.2174L20.8138 30.9982L20.5008 30.4662L20.2504 29.9341L20 29.402L19.8435 28.8073L19.7809 28.3378L19.7183 27.5867L19.6244 26.8355L19.5618 26.4599L20.0313 26.7103L20.5008 26.9294L21.0329 27.0859L21.5023 27.2424L22.0344 27.3989L22.5665 27.618L23.036 27.8371L23.5055 28.0875L23.9124 28.4005L24.288 28.8073L24.6009 29.2768L24.9139 29.7463L25.2895 30.5914L25.759 31.9059L25.9781 32.5945L26.072 33.1892L26.1346 33.4083V33.5648L26.2911 33.7213L26.5415 33.9404L26.7919 34.1908L27.1049 34.3473L27.4178 34.4411L27.2613 34.1908L27.1049 33.8151L26.9484 33.5022L26.9171 33.1892L26.7919 33.0014L26.6354 32.6884L26.4789 32.3754L26.4163 31.9998L26.3537 31.6242V31.3112L26.4476 30.8418L26.6667 30.3723L26.9171 29.9654L27.23 29.5898L27.543 29.3394L27.856 29.089L28.2316 28.8387L28.6072 28.6822H28.7637H28.9202L29.0767 28.776L29.1706 28.8699L29.4836 29.089L29.7027 29.3394L29.9218 29.5585L30.1408 29.8089L30.2973 30.0593L30.4538 30.3097L30.6103 30.8418L30.7668 31.4364L30.8294 31.9059L30.892 32.3754L30.9546 32.7823L30.892 33.2518L30.7981 33.6587L30.6729 33.9404L30.7355 33.8778L30.892 33.6587L31.0485 33.4083L31.3615 32.8136L31.6745 32.438L31.9249 32.2189L32.1753 32.125L32.4883 32.0311L32.5822 31.9998L32.6135 31.9685L33.0829 31.5929L33.5524 31.2799L34.0845 30.967L34.6166 30.654L35.2113 30.341L35.8059 30.0906L36.4006 29.8402L37.0266 29.5898L37.4335 29.4333L37.8404 29.1829L38.0908 29.089L38.3099 29.0264L38.529 28.9638H38.7793L38.7167 29.2768L38.6541 29.5272L38.4977 29.7463L38.3412 29.9967L38.1221 30.4662L37.8091 30.9357L37.5587 31.1547L37.3396 31.3739L37.0892 31.5929L36.7762 31.7494L36.1815 31.9998L35.9624 32.0937L36.1189 32.0624L36.5258 31.9059L36.9953 31.6868L37.59 31.3739L38.1221 31.0609L38.6541 30.6853L39.061 30.2784L39.687 29.5272L40.3756 28.8387L41.1268 28.1501L41.8153 27.4615L42.1283 27.1485L42.4413 26.8355L42.9734 26.4599L43.1925 26.3034L43.3803 25.3019L43.4742 24.269L43.0047 25.0515L42.4726 25.8026L42.097 26.3347L41.6901 26.7416L41.2833 27.2111L40.8764 27.618L40.5634 27.931L40.1565 28.244L39.9061 28.4005L39.687 28.463L39.4679 28.5257H39.2488L39.7183 27.9936L40.1878 27.5241L40.4069 27.2737L40.626 27.0233L40.8451 26.7729L41.0016 26.4599L41.1581 25.7713L41.252 25.0202L41.3459 24.6446V24.269V23.8934L41.2833 23.5178L41.2207 22.9857L41.1581 22.5163L41.0642 22.0468L40.9077 21.5773L40.8138 21.3582L40.7199 21.2017L40.5634 21.0452L40.4695 20.9513L40.0939 20.7948L39.7183 20.7009L39.6244 20.5444L39.5618 20.3253L39.6244 20.075L39.687 19.8246L39.7809 19.2925L39.9374 18.9169L40.0313 18.2909L40.2504 17.7588L40.5634 17.0077L40.8764 16.2565L41.252 15.5679L41.5649 14.8167L41.784 14.4098L42.0344 14.003L42.0657 13.9403L41.9092 13.5335L41.5023 12.5945L40.9703 11.6555L40.5008 10.7166L39.9061 9.87149L39.2801 8.96385L38.6541 8.18137L37.9656 7.3989L37.2144 6.61643L36.4632 5.92783L35.6807 5.23927L34.8357 4.61329L33.9906 3.98731L33.0829 3.39263L32.1753 2.86056L31.2363 2.39108L30.2973 1.98418L29.2958 1.57728L28.2942 1.26429L27.23 0.951297L26.1659 0.73222L25.1017 0.513143L24.0063 0.356649L22.9108 0.294028L21.8153 0.231445L20.7199 0.294028L19.6244 0.356649L18.529 0.513143L17.4648 0.73222L16.4006 0.951297L15.3365 1.26429L14.3349 1.57728L13.3333 1.98418L12.3944 2.39108L11.4554 2.86056L10.5164 3.39263L9.67136 3.98731L8.76369 4.61329L7.98122 5.23927L7.19875 5.92783L6.41628 6.61643L5.7277 7.3989L5.03913 8.18137L4.35055 8.96385L3.75587 9.87149L3.16119 10.7166L2.62911 11.6555L2.15962 12.5945L1.75274 13.5335L1.34585 14.535L1.03286 15.5366L0.719876 16.6008L0.500784 17.6649L0.281693 18.7291L0.125198 19.8246L0.0626016 20.92L0 22.0155L0.0626016 23.1109L0.125198 24.2064L0.281693 25.3019L0.500784 26.366L0.719876 27.4302L1.03286 28.4943L1.34585 29.4959L1.75274 30.4975L2.15962 31.4364L2.62911 32.3754L3.16119 33.2831L3.75587 34.1908L4.35055 35.0358L5.03913 35.8809L5.7277 36.6634L6.41628 37.4145L7.19875 38.1657L7.98122 38.8543L8.76369 39.4803L9.67136 40.1063L10.5164 40.7009L11.4554 41.233L12.3944 41.7025L13.3333 42.1094L14.3349 42.485L15.3365 42.8605L16.4006 43.1109L17.4648 43.3613L18.529 43.5804L19.6244 43.6743L20.7199 43.7682H21.8153H22.9108L24.0063 43.6743L25.1017 43.5804L26.1659 43.3613L27.23 43.1109L28.2942 42.8605L29.2958 42.485L30.2973 42.1094L31.2363 41.7025L32.1753 41.233L33.0829 40.7009L33.9906 40.1063L34.8357 39.4803L35.6807 38.8543L36.4632 38.1657L37.2144 37.4145L37.9656 36.6634L38.6541 35.8809L39.2801 35.0358L39.9061 34.1908L40.5008 33.2831L40.9703 32.3754L41.5023 31.4364L41.7527 30.8731L41.1894 31.1547ZM19.5305 28.0562L19.4366 28.6508L19.3427 29.1203L19.1236 29.5272L19.0297 29.6211L18.9358 29.715H18.7793L18.6228 29.6524L18.2473 29.4333L17.9343 29.0577L17.2457 28.2127L16.7762 27.5241L15.9937 26.7729L15.2113 25.9904L14.8044 25.5836L14.4914 25.1767L14.1158 24.7698L13.8654 24.3003L13.7715 23.8308L13.6776 23.1422L13.615 22.2972L13.6776 21.4521L13.7715 21.0765L13.8654 20.7009L13.9593 20.3879L14.1158 20.1688L14.3349 20.0123L14.5853 19.9498L14.8983 20.0436L15.2113 20.2001L15.9937 20.7948L16.7449 21.4208L17.1518 21.8903L17.5587 22.4224L17.9343 22.9544L18.3412 23.4239L18.6541 23.8308L18.9671 24.2377L19.1236 24.4568L19.2175 24.7072L19.2801 24.9263L19.374 25.1767L19.4679 26.1782L19.5305 27.3989V28.0562ZM27.011 27.1485V27.6806L26.9484 28.1501L26.8858 28.6195L26.7293 29.2142L26.5102 29.6837L26.1972 30.1532L25.9468 30.6227L25.6338 30.0906L25.2582 29.5585L24.9452 29.089L24.5696 28.6822L24.3193 28.3065L24.1002 28.0562L23.8498 27.8058L23.5368 27.5554L23.2238 27.3989L22.9108 27.1798L22.5352 27.0233L22.1596 26.9294L21.5337 26.7103L21.0642 26.4599L20.8451 26.3034L20.7512 26.053L20.6886 25.8026V25.4271L20.8451 24.8324L21.0642 24.2064L21.2833 23.6117L21.5962 23.0796L21.9092 22.6102L22.2222 22.1407L22.5978 21.7338L23.0047 21.3582L23.2551 21.1391L23.5055 20.92L23.662 20.8574L23.7559 20.7948H23.9124H24.0063L24.2253 20.8887L24.3818 20.9826L24.5383 21.1391L24.6322 21.2956L24.8826 21.6712L25.1017 21.9842L25.5712 22.6727L25.9468 23.3613L26.1972 23.7369L26.3537 24.1125L26.5728 24.5194L26.6667 24.9263L26.8232 25.3332L26.8858 25.7401L26.9484 26.1469L27.011 26.6164V27.1485ZM25.5399 18.3535L25.3208 17.9466L25.0704 17.5397L24.82 17.1641L24.6009 16.7572L24.3506 16.3504L24.1315 15.9435L23.8811 15.5679L23.6307 15.161L23.4116 14.7854L23.1925 14.4098V14.0968V13.8465L23.2551 13.5335L23.3177 13.2205L23.5368 12.5945L23.6933 12.0624L24.0689 11.2174L24.5383 10.4662L25.0078 9.71499L25.5399 9.08901L25.8529 8.71344L26.1033 8.30654L26.2598 8.15005L26.4163 7.99355L26.5728 7.83706L26.7919 7.77447L26.9484 7.71189H27.0422H27.1362L27.23 7.77447L27.4491 7.99355L27.6995 8.15005L28.0125 7.83706L28.2316 7.52407L28.3881 7.43019H28.482L28.7011 7.52407L28.9515 7.74318L29.3271 8.11875L29.6401 8.52566L29.8905 8.93252L30.1408 9.402L30.6103 10.341L31.0798 11.2799L31.2989 11.7494L31.5493 12.2815L31.7684 12.9075L31.9249 13.5022L31.9875 13.8152L32.0501 14.0655V14.3785L31.9875 14.6289L31.8936 14.8793L31.7371 15.1297L31.5806 15.3488L31.3302 15.5679L30.9546 15.787L30.5477 15.8496L30.1408 15.9122L29.734 16.0061L29.421 16.1L29.108 16.2565L28.795 16.5069L28.5446 16.726L28.1377 17.1954L27.7308 17.6023L27.3552 18.0718L27.0422 18.6039L26.7293 19.0734L26.5102 19.5429L26.4476 19.762L26.385 19.9185L26.2911 20.075L26.1346 20.1375L25.9781 19.7306L25.8842 19.2612L25.7903 18.7917L25.5399 18.3535ZM29.5462 27.5241L29.4836 27.7745L29.421 28.0249L29.3271 28.244L29.1706 28.463L29.0141 28.6822L28.795 28.7447H28.6385L28.482 28.6822L28.2316 28.3692L27.9812 27.9936L27.7308 27.4615L27.5117 26.9294L27.4491 26.7103L27.3865 26.4599L27.4491 26.2408V25.9904L27.5117 25.3958V24.8637L27.4491 24.6133L27.3865 24.3629L27.2926 24.1125L27.1987 23.8621L26.7919 23.1735L26.5415 22.5475L26.4476 22.2346L26.385 21.859L26.4476 21.4834L26.5415 21.0765L26.6354 20.6696L26.8545 20.294L27.011 19.8871L27.23 19.5116L27.7621 18.823L28.2942 18.197V18.1344L28.8263 17.7275L29.3584 17.3206L29.7653 16.9451L30.1721 16.726H30.3286L30.4225 16.7886L30.4851 16.8512L30.5477 16.9451L30.6103 17.1954L30.6729 17.4458L30.7355 17.0702L30.8294 16.7572L30.9233 16.6634H31.0798L31.2363 16.726L31.3928 16.8199L31.6432 17.0702L31.8623 17.3206L32.3318 17.9466L32.8013 18.5726L33.2707 19.1047L33.6776 19.6993L34.0845 20.2315L34.3975 20.92L34.6166 21.3895L34.8357 21.9216L34.9296 22.4537L35.0235 22.9857L35.0861 23.5804V24.2064L34.9296 24.895L34.7105 25.4896V25.2706L34.6479 25.0515L34.4914 24.8011L34.3349 24.582L33.9593 24.1751L33.5837 23.9247L33.3646 23.8308H33.1455L32.8951 23.8934L32.6761 23.9873L32.2066 24.2377L31.7997 24.4881L31.205 24.9576L30.6729 25.4271L30.266 25.9591L29.8592 26.5851L29.6401 27.0546L29.5462 27.5241ZM35.3991 28.8387L35.3365 29.089L35.2739 29.3081L35.18 29.5272L35.0861 29.7776L34.7731 30.1532L34.3975 30.5288L33.9906 30.8418L33.5211 31.0922L33.0516 31.3112L32.5822 31.4677L32.3631 31.5304L32.1127 31.5929H31.9562L31.8623 31.5304L31.7684 31.4677L31.6745 31.3739L31.3615 30.9044L31.1111 30.3723L30.7981 29.9654L30.4225 29.5585L30.2034 29.3081L30.0469 29.089L29.9531 28.8387L29.8592 28.6195V28.4005V28.1813L29.9218 27.9623L29.9844 27.8058L30.1408 27.3989L30.3599 27.0859L30.579 26.7103L30.8294 26.3973L31.0798 26.0843L31.3928 25.8339L31.8623 25.4584L32.3944 24.9889L32.9264 24.6133L33.4585 24.3003L33.8654 24.8324L34.241 25.3019L34.6166 25.8965L34.867 26.4286L35.1174 27.0233L35.3365 27.618L35.4304 28.244V28.8387H35.3991ZM39.8122 21.6086L39.9687 21.8277L40.2817 21.7651L40.5947 21.546L40.7512 21.7964L40.8451 22.1094V22.485L40.9077 22.7354L40.9703 23.2048L41.0329 23.6743V24.0812L40.9703 24.5507L40.9077 25.1767L40.8451 25.8653L40.7825 26.1782L40.7199 26.5538L40.5634 26.8042L40.4069 27.1172L40.1878 27.3676L39.9374 27.5241L39.687 27.6806L39.4366 27.7745L38.8106 27.931L38.216 28.1501L37.6213 28.3692L36.9953 28.6195L36.7762 28.7134L36.4632 28.8699L36.2128 28.9638H35.9624L35.8685 28.9012V28.6822L35.8059 28.463V28.2127L35.8685 27.6806V27.3676L35.7747 26.8355L35.6807 26.366L35.6182 26.1469V25.8965V25.6774L35.6807 25.4271L35.8998 24.8324L36.2128 24.3003L36.6197 23.7682L37.1518 23.3613L37.7465 22.7354L38.3412 22.1407L38.5916 21.9216L38.9671 21.6086L39.1236 21.4521L39.3427 21.3582L39.4992 21.2956H39.6557L39.8122 21.6086ZM37.7152 11.1861L37.9656 10.4975L37.903 10.0906L37.8091 9.71499V9.49591L37.8717 9.27684L37.9343 9.05772L38.0908 8.83864L38.1847 8.74473H38.2786H38.3725L38.529 8.80735L38.7793 9.02643L39.0297 9.33942L39.4992 10.028L39.8122 10.4349L40.1252 11.0296L40.5008 11.6243L40.7512 12.2189L40.9703 12.8449L41.0642 13.1579V13.4709V13.7838L41.0016 14.1595L40.9077 14.5663L40.7512 15.0358L40.6573 15.4427L40.5634 15.9122L40.4695 16.3817L40.313 16.8512L40.1565 17.3206L39.9374 17.7901L39.7183 18.1657L39.4053 18.5726L39.3114 18.6665L39.1549 18.7291H39.0923L39.0297 18.6665L38.9671 18.5726L38.9045 18.4787L38.8419 17.7901V17.1641V16.5382L38.748 15.8496L38.6541 15.2236L38.4977 14.6289L38.3412 14.003L38.1847 13.377L38.0282 13.0014L37.7778 12.5319L37.5274 12.125L37.4648 11.812L37.7152 11.1861ZM37.6213 14.1282L37.9969 15.4427L38.2473 16.8199L38.4038 17.5084L38.5603 18.2596L38.6228 18.6352V18.9482V19.3238L38.5603 19.6993L38.4663 20.0123L38.3099 20.3879L38.1534 20.7009L37.9343 20.9513L37.4648 21.5773L37.0579 22.172L36.6823 22.6415L36.3693 23.0484L36.2128 23.2048L36.0563 23.2987L35.9624 23.3613L35.8998 23.2987V23.2361L35.8372 23.0796L35.7434 22.8292L35.6807 22.5789L35.6182 22.2659V22.0155V21.7025L35.5556 21.4521L35.493 21.1391L35.3991 20.8887L35.2426 20.5131L35.0235 20.2001L34.7731 19.8871L34.5227 19.5741L33.9906 18.9795L33.4585 18.3848L32.989 17.9153L32.457 17.4458L32.2379 17.1954L32.0814 16.8824L32.0188 16.726V16.5695V16.413L32.0814 16.2565L32.3318 15.5053L32.5509 14.7541L32.6135 14.2847L32.6761 13.7526L32.7387 13.2831L32.8951 12.8136L33.1142 12.1876L33.3333 11.5929L33.6463 10.9044L33.8967 10.1532H34.0532L34.1158 10.2158L34.2097 10.3097L34.3036 10.3723L34.4601 10.5914L34.6166 10.7479L34.7105 10.8105L34.8044 10.8731L34.8983 10.8105H34.9922L35.1487 10.654L35.3052 10.4349L35.4617 10.2784L35.6182 10.1845H35.7747L35.9937 10.2784L36.2128 10.5288L36.4319 10.8418L36.5884 11.2174L36.7449 11.5303L37.2144 12.8449L37.6213 14.1282ZM30.5477 3.64303V3.54912H30.8607L31.1737 3.64303L31.6432 3.79953L32.1127 3.95602L32.5196 4.20639L32.9264 4.4568L33.302 4.70717L33.6776 5.08278L34.2097 5.55226L34.7418 6.02174L34.9922 6.49123L35.3052 6.96071L35.5243 7.21108L35.7434 7.43019L35.8372 7.58669L35.9937 7.74318L36.2128 7.99355L36.4319 8.21267L36.5884 8.46303L36.6823 8.77602L36.8388 9.37071L36.9327 9.99669V10.2158V10.4349V10.654L36.8388 10.8731L36.7762 10.6227L36.5571 10.3097L36.338 10.0593L36.1189 9.90281L35.8998 9.6837L35.6494 9.58983H35.5556H35.4617L35.3052 9.65241L35.2113 9.74632L34.9922 9.9654L34.7418 10.1845L34.6479 10.2471H34.554L34.3975 10.1532L34.3036 10.0593L33.928 9.37071L33.615 8.68215L33.2394 7.93097L32.8638 7.17979L32.7074 6.80422L32.4883 6.42861L32.2379 6.11562L31.9875 5.80263L31.5806 5.33314L31.205 4.86366L30.9546 4.39418L30.7042 3.92469L30.6416 3.83082L30.579 3.7682V3.64303H30.5477ZM28.1064 4.42551L28.2629 4.26901L28.4194 4.1751L28.5759 4.23768L28.7324 4.33159L29.108 4.1751L29.5775 4.01861L29.8279 4.11252L30.0782 4.36289L30.2973 4.61329L30.5164 4.86366L31.1111 5.61484L31.7058 6.36602L32.3005 6.96071L32.77 7.58669L32.9264 8.05617L33.0203 8.52566L33.0829 9.05772L33.1455 9.5272V9.93411L33.0829 10.3097L33.0203 10.7166L32.9264 11.1234L32.8325 11.5303L32.6761 11.9059L32.457 12.2815L32.2379 12.5319L32.144 11.9998L32.0501 11.4678L31.8936 10.8731L31.6745 10.341L31.3615 9.74632L30.9859 9.15163L30.6103 8.55695L30.2034 8.02488L29.9531 7.64927L29.6401 7.2737L29.421 7.1172L29.2019 6.96071L28.9828 6.8668L28.7637 6.80422H28.3568L27.8247 6.89809H27.5743L27.3552 6.83551H27.2613L27.1675 6.74159L27.1049 6.67901L27.0422 6.5851V6.27211L27.1987 5.86525L27.3552 5.48964L27.5117 5.17665L27.7621 4.70717L28.1064 4.42551ZM24.9452 4.51938L25.0391 4.36289L25.133 4.20639L25.3521 3.98731L25.5712 3.7682L25.8842 3.45521L26.1972 3.14222L26.2911 3.07964L26.385 2.98573L26.4789 2.92314H26.6354L26.7293 3.01706L26.7919 3.07964L26.8545 3.14222H26.9484L27.2613 3.54912L27.5117 3.95602L27.5743 4.11252V4.26901L27.5117 4.48809L27.4491 4.64458L27.2926 5.05148L27.1362 5.30185L26.8232 5.83396L26.4476 6.42861V6.5851L26.385 6.74159L26.3224 6.80422H26.2598L26.1972 6.74159L26.1346 6.67901L26.0407 6.36602L25.9468 6.05303L25.6338 5.64613L25.2582 5.23927L25.1017 5.08278L24.8826 4.86366L24.82 4.70717L24.7574 4.61329L24.9452 4.51938ZM20.2504 11.4991L20.313 11.1234L20.4069 10.7479L20.5008 10.3723L20.6573 10.0593L20.9077 9.5272L21.1581 9.05772L21.3772 8.58824L21.6275 8.11875L22.0031 7.43019L22.3787 6.80422L22.6917 6.17824L23.0047 5.58355L23.1612 5.42706L23.3177 5.27056L23.5368 5.17665L23.7559 5.11407L24.1628 5.27056L24.5696 5.33314L24.7261 5.17665L24.8826 5.11407L25.0391 5.27056L25.1956 5.48964L25.4147 5.80263L25.5712 6.17824L25.7277 6.49123L25.8842 6.8668V7.1172V7.33628L25.8216 7.5554L25.7277 7.77447L25.4773 8.15005L25.1643 8.52566L24.7887 8.99514L24.4131 9.46462L24.1002 9.93411L23.7872 10.4662L23.5368 10.8418L23.3177 11.2486L23.0986 11.6555L22.9421 12.125L22.7856 12.5319L22.6917 13.0014L22.6291 13.4709L22.5665 13.9403L22.1596 13.5648L21.7527 13.1892L21.3459 12.9388L20.8764 12.6258L20.6573 12.5319L20.5634 12.3754L20.4069 12.2815L20.3443 12.125L20.2504 11.812V11.4991ZM20.313 12.9701L20.5634 12.8762L20.6573 12.9388L20.8138 13.0327L20.9077 13.1892L21.2833 13.5648L21.5962 13.9717L21.9718 14.3472L22.2848 14.7541L22.8169 15.4427L23.4116 16.0687L23.662 16.4443L23.9124 16.7572L24.1628 17.1329L24.3818 17.5084L24.6322 18.1031L24.8826 18.6978L25.133 19.2299L25.2895 19.8558L25.3834 20.2627L25.446 20.7322V21.2017L25.5086 21.4208L25.446 21.6712V21.2017L25.3834 20.9826L25.2269 20.7635L25.0704 20.5444L24.9139 20.3879L24.6948 20.2315L24.4757 20.1375L24.2253 20.0436H23.9124L23.662 20.1375L23.4116 20.294L22.8795 20.6696L22.5039 21.1391L22.0344 21.6712L21.6588 22.2972L21.252 22.8919L20.939 23.5178L20.7825 24.0499L20.626 24.6446L20.5634 24.895L20.5008 25.1454L20.4069 25.3958L20.313 25.6149L20.0626 25.3019L19.8435 24.9889L19.6244 24.6133L19.4679 24.2377L19.2488 23.8308L18.9984 23.4552L18.748 23.0796L18.4351 22.704L17.9656 22.2346L17.4961 21.7651L17.0892 21.233L16.6823 20.7009L16.4319 20.294L16.2128 19.9185L16.0563 19.5429V19.0108L16.1189 18.5413L16.2128 18.1344L16.3693 17.6649L16.5884 17.2581L16.9014 16.5069L17.2144 15.8183L17.59 15.1297L18.0595 14.5037L18.3099 14.0343L18.7167 13.5022L18.9671 13.2518L19.2175 13.0327L19.3114 12.9701L19.4053 12.9075H19.4992L19.5931 12.9701L19.7496 13.064L19.9061 13.2205L20.0626 13.1266L20.313 12.9701ZM16.4945 12.6884V12.3754V11.9998L16.5571 11.6243L16.651 11.2486L16.7449 10.9357L16.8388 10.6227L16.9953 10.3097L17.2144 9.99669L17.4335 9.6837L17.8091 9.27684L18.1847 8.90123L18.6541 8.58824L19.061 8.27525L19.4366 8.05617L19.7496 7.83706H19.9061L19.9687 7.89968V8.05617L19.9061 8.30654L19.5931 8.99514L19.2801 9.74632L19.1236 10.1532L18.9671 10.6227L18.8106 11.1548L18.748 11.6243V12.1563V12.751L18.4351 13.2205L18.0282 13.69L17.5587 14.3785L17.1518 15.0671L16.9327 14.3785L16.6823 13.7526L16.5884 13.377L16.5258 13.064V12.6884H16.4945ZM13.2394 16.9764V16.5695L13.302 16.1L13.3646 15.6931L13.4585 15.2236L13.7089 14.3785L14.0219 13.4709L14.1784 13.1579L14.4288 12.6258L14.5853 12.4067L14.7418 12.2502L14.8357 12.1876L14.9296 12.125H14.9922L15.0861 12.1876L15.3052 12.438L15.5243 12.8136L15.7746 13.4083L15.9937 13.9403L16.1502 14.535L16.3067 15.0671L16.3693 15.6618L16.3067 16.2565L16.2128 16.8512L15.9937 17.4458L15.8372 17.8527L15.7746 18.2596L15.6808 18.6665L15.6182 19.0734L15.5556 19.3864L15.4617 19.6368L15.3678 19.7306L15.2113 19.7933H15.0548H14.8983L14.2723 19.6368L13.6776 19.4177L13.4585 18.8856L13.3646 18.2596L13.2081 17.6336V16.9764H13.2394ZM11.2363 17.0389L11.2989 16.8199L11.3615 16.6634L11.4241 16.5695L11.518 16.5069L11.6119 16.5695L11.7058 16.6321L11.7997 16.7886L11.8623 17.0077L12.2379 17.7588L12.6135 18.3848L12.8326 18.7604L12.989 19.0734L13.1455 19.449L13.2394 19.8558L13.302 20.4505V21.0765L13.2394 21.7025V22.3285L13.302 22.9232L13.3646 23.5178L13.4272 24.1125V24.7072L12.8012 23.6117L12.2066 22.5163L11.9875 21.9216L11.7684 21.2956L11.6119 20.7009L11.4554 20.0123L11.3615 19.3238L11.2676 18.5726L11.205 17.8214L11.2363 17.0389Z" fill="white"></path><path d="M35.2747 32.4695L34.6487 32.626L34.0541 32.8138L33.9289 33.0015L33.4281 33.3772L33.209 33.5962H33.3342L33.8037 33.5337H33.8976L34.0228 33.4397L34.6174 33.1268L35.1182 32.7512L35.7129 32.4695L36.1198 32.313L35.8068 32.3756L35.2747 32.4695Z" fill="white"></path></svg>